<svg xmlns="http://www.w3.org/2000/svg" viewBox="0 0 528 545">

    <path
      d="M89.67,538.42c-9.45-12.29-16.85-25.6-19.41-41.09-2.23-13.49-.73-26.2,8.94-36.95,7-7.8,15.93-11.33,26.15-11.43,11.35-.1,12.05-1,7-11.29-4.54-9.32-5.33-19.06-3.53-29.18,4.3-24.14,24.38-63.68,41.84-81.82-7.5-4.64-15-9.11-21.43-15.15-24.47-23.08-30.54-51.05-19.51-82,6-16.91,9.94-33.71,9.91-51.57,0-3.15-.21-3.95-3.85-3.74C89.1,175.68,69.23,163.3,54,142.44A61.06,61.06,0,0,1,43.48,118.9c-4.17-19.64,4.24-32.39,24.13-35.27,27-3.92,54-4.75,80.5,3.75a10,10,0,0,0,1.94.12c-2.37-8.38-5.67-16.31-6.4-24.89a91.68,91.68,0,0,1,1.29-25.83A29.37,29.37,0,0,1,149,26.65c7.27-11.34,20.61-12.33,29.43-2.13,3.06,3.55,5.22,7.69,7.38,11.83,3.87,7.44,9.77,13,16.66,17.56,1.09.73,1.84,1.43,3.46.6,26.84-13.63,55.46-17.83,85.23-16.09,21,1.23,41.07,6,59.75,15.89,1.86,1,2.79.59,4.31-.45A50.4,50.4,0,0,0,372.6,34.31a73.25,73.25,0,0,1,4.32-7.87c7.51-11.44,21.84-12,30.29-1.24,4.28,5.45,5.79,11.87,6.48,18.57a85.63,85.63,0,0,1-6.23,42.5c-.19.37-.39.73-.58,1.09l1.28,0a193.2,193.2,0,0,1,82.11-3.63c19,3.22,27.19,15.53,22.8,35.36-5.39,24.35-20.78,40.69-43.51,50.39a60.3,60.3,0,0,1-28.25,4.89c-2.93-.2-3.84.14-3.82,3.48a135.08,135.08,0,0,0,8.92,48.73c11.09,28.69,7.44,55.5-12.74,79.42-4.78,5.66-10.62,10.09-16.66,14.23-2.32,1.58-2.23,2.46-.32,4.34C439.61,347,452.53,375,461.27,405.27c1.2,4.13,1.55,8.5,2.3,12.75,1.17,6.57,2.71,7.41,8.25,4.2,9.55-5.55,16.83-12.94,19.44-24.15.5-2.15.25-3.3-1.77-4.35-21.45-11.18-32.35-42.81-12.36-68.59,2.53-3.27,5.16-6.56,4.7-11.17-.2-1.92.33-3.87,2.37-4.49,2.35-.72,3.66,1.09,4.74,2.82.78,1.24,1.33,2.63,2.13,4.24,2.95-4.82,5.6-9.56,8.64-14,6.71-9.89,16.46-10.05,23.65-.42a66.93,66.93,0,0,1,4.88,8.1c1,1.78.7,4.57,4.39,2.7,1.55-.78,2,2.08,1.6,3.29-.83,2.33.26,3.55,1.58,5.17,20.08,24.6,14.7,56.93-12.2,73.64-1.4.87-2.8,1.33-3,3.48C518.39,422.87,504,439,484.34,451.59c-.67.42-1.29.91-2,1.41,16.59,10.72,22.85,27.9,17.81,48.31a92.51,92.51,0,0,1-17.51,36c-1.93,2-3.81,4.07-5.79,6-6,6-13.93,9-21.15,13-10.93,3.65-22,1.65-33,.8-3-.23-5.93-.68-8.89-1-13.6-3.7-27.62-5.85-40.75-11.27-7.06-2.92-14.14-5.62-21.8-1.58-1.19.63-2.94.26-4.43.26q-59.21,0-118.39.07c-5.34,0-10.7.22-15.67-2.17-1.59-.77-2.85-.08-4.26.38-10.26,3.4-20.39,7.27-31,9.43-11.21,2.29-22.5,4.22-33.75,6.31l-14.91.92c-6.28.38-12.17-1.31-18-3.47A79,79,0,0,1,89.67,538.42Zm442.72-199.9c3.67-2.39.94-3.67-.89-5.1-.21-1.43,0-3.51-1.75-3.63s-.44,1.83-.87,2.75l-1.39,0c-1.86-2.86-.51-7-3.73-9.31-2-7.55-4.17-15-12-18.86-1.16-1.3-2.26-.54-2.83.43-5.23,8.9-12.83,16.2-17.26,25.63l-2,3c-3.4-.34-2.19-3.92-4.12-5.91-3.14,5-6.07,9.79-6,15.8-2,.19-2.57,1.64-3.14,3.33a15.42,15.42,0,0,0,8,18.74c-1.14-13.74-1.14-13.74.89-16.87,1.18,6.8,6.85,19.61,10.95,24.37,1,1.13,2.47,2,4,1.05,1.77-1.07,1-2.09-.33-3-1.49-1-1.05-2.36-.25-3.49,3.39-4.72,4.16-10.37,5.78-15.73.88-2.92,2-5.74,4.69-8a12.62,12.62,0,0,0,2.92,8.77c.82,1,.42,2.17-.32,3.22-2.13,3-1.19,6.48-.95,9.68s4.86,5.28,7.94,4c8.1-3.46,11.65-10.31,13.71-18.29C534.18,346.87,533.11,342.71,532.39,338.52ZM155,34.44a28.9,28.9,0,0,0-2.25,10.2c-2.18,13.58,0,26.52,5.64,39,1.55,3.24,1.72,7.88,7.22,7.14A46.28,46.28,0,0,1,156,101.52a9,9,0,0,0-5.09-4.3c-22.1-8.23-45-7.35-67.93-6.44a63.35,63.35,0,0,0-20.47,3.76c-8.2,3.17-11.91,9.43-10.28,18.06a53.33,53.33,0,0,0,11.68,24.86c8.71,14.49,21.05,23.82,37.91,26.76,2.35,2,5.36,1.44,8,1.82,8.28,1.16,11.19-.78,13.67-8.42a3.82,3.82,0,0,0,.08-1c0-.68.09-1.37.14-2,.17-.46.34-.92.5-1.38,3-8.22,4.45-17,9-24.66,2-3.37,1-4.5-2.24-6.1-18.14-8.89-37.4-13.54-57.32-15.9a5.75,5.75,0,0,1-4.83-3,193.61,193.61,0,0,1,38.77,2.54,138.73,138.73,0,0,1,28.92,11.69c2.11,1.14,3.12.88,4.36-1a38.86,38.86,0,0,1,7.9-9.53c3.57,2.23,1.73,4.72.29,7.11-12.3,20.49-19.41,42.66-20.28,66.54-.65,17.8-3.68,34.85-10.45,51.46a61.21,61.21,0,0,0-1.92,41.39c3.52,15.42,12.94,26.93,25.17,36.08,15.91,11.91,34.44,17.79,53.71,21.69,7,1.42,13.89,3.12,20.65-1.13,1.92-1.2,4.45-1.12,6.82-1.15,14-.18,28-.46,41.95-.71l37.92.07c13,.14,25.94.35,38.91.39,5.87,0,11.66.15,16.93,3.19a4.86,4.86,0,0,0,3.86.27c15.17-3.84,30.26-7.94,43.9-15.95,18.54-10.9,31.67-26,35.9-47.64,2.8-14.31.49-28.22-5.06-41.48-5.89-14-8.31-28.6-8.61-43.73a108.43,108.43,0,0,0-3.23-23.66c-.32-1.33-.11-3.11-2.35-3.22-2.78-.14-4.78-2.17-7.19-3.23l-1.15-1.68c.81-6.39-.8-12.49-2.1-18.64-1.62-7.71-6.27-14.42-7.17-22.37-.3-2.6-2.19-4.37-3.84-6.45-4-5-9.12-9.07-11.73-15.09,3.36,2.15,5.2.79,6.9-2.46a67.05,67.05,0,0,0,7-20.19c1.92-11.52,3.06-23.11-2.71-34.07A4.82,4.82,0,0,0,398.77,30c-6-4.95-10.5-4.48-14.41,1.6a56.3,56.3,0,0,0-3.3,6.12c-4.29,9-10.85,16.16-18.65,22.26-1.94,1.52-4.33,2.48-5.76,4.62-5,.53-8.9-2.31-13.1-4.15-16.24-7.09-33-12.15-50.83-12.81a159.68,159.68,0,0,0-86.35,16.57c-2,1-3.42,1.27-5.43,0-9.71-6.37-18.22-13.82-23.74-24.3-1.53-2.91-3.51-5.59-5.29-8.37-1.07-1.62-1.71-3.93-4.5-2.78l-.17.35.38.11c-2-3.64-4.57-3.52-9.4.46a.47.47,0,0,0-.43.43A9.06,9.06,0,0,0,155,34.44ZM335.25,436.61c-.18-.8-.37-1.61-.55-2.41l-.08-3.81c.26-1.56.52-3.12.79-4.68l.21-2.25c2.39-6,6.55-10.78,10.19-15.94a2,2,0,0,0,1.92-1.09l10.91-7.05c4-.27,4.05-3.1,4.05-6.07,0-13.56,0-27.12,0-40.69,0-1.42.49-3-1.06-4.07-1.45-1.21-.34-4.71-3.74-4.17-2.1-6.38-7.66-6.54-12.79-6.56q-60.31-.18-120.64,0c-9.9,0-16.13,6.17-16.42,16.06-.08,2.49,0,5,0,7.48-.86,10.41.07,20.83-.32,31.24-.15,4,.38,6.87,4.59,8.6,3,1.22,5.59,3.5,8.36,5.31.92,1.35,2.42,1.64,3.81,2.13,1.42,3.74,5.87,5.4,6.61,9.6-.19,2,.18,3.7,2.41,4.38l1,.28,1.26,1.31c-3.94,1-2.45,3.69-2.18,6.24a32.39,32.39,0,0,1-.39,8.38c-.54,3.34-2.38,6.64-.84,10.17l-.39,1.48c-2.13,4.44-5.15,8.53-5.39,13.71l-.16.2c-3,0-1.31,3.24-3.59,4.76-4.95,3.28-8.75,8.4-13.7,12.05-.48.35-.46,1.55-.46,2.36,0,11.83-.32,23.67.13,35.49.36,9.35,7.39,15.48,16.61,15.48q60.75,0,121.48,0c8.19,0,14.05-5.67,14.92-13.79a210.87,210.87,0,0,0,.76-27.41c-.15-6.41-.47-12.81-7.11-16.7a18.72,18.72,0,0,1-5.49-5.74,5.13,5.13,0,0,0-5.08-2.35c-.25-2-.27-4.09-2.21-5.39-.19-.85-.37-1.7-.55-2.55l-1.41-4.19c-1.92-1.59.07-4.7-2.36-6.1q-1.46-6.4-2.89-12.82A.62.62,0,0,0,335.25,436.61Zm132.34,22.75-9.8-1.89c-8.47.78-17.58-.63-24.12,6.93A141.12,141.12,0,0,1,385.53,484c-4.59.95-11.11-1.74-13.37,2s-.35,9.72-.89,14.66c-1.2,10.95,2.65,22.71-5.72,32.74a214.15,214.15,0,0,0,58.8,14.31,38.75,38.75,0,0,1-7-12.26,61.9,61.9,0,0,1-1.25-18.82c1.68-15.65,8.89-28.77,18.37-40.85,5.48-7,11.47-13.46,20.55-15.87.13,2.91-1.89,4.55-3.6,6.48-.92,1-3.65,1.67-1.65,4-2.63,3.12-5.21,6.28-7.9,9.35-4.54,5.19-7.6,11.27-10.52,17.42-1.48,3.12.48,3.47,2.81,3.22a55.25,55.25,0,0,0,7.82-1.18c2.89-.75,3,.45,2,2.47-1.39,3-2.58,5.86-.57,9.28.7,1.2,1.25,4.07-.72,4.87-1.77.72-2.5-1.63-3.39-3a20.78,20.78,0,0,1-1.88-2.93c-1.32-3-3.25-4.68-6.87-4.53s-4.77,2.9-5.72,5.37c-1.92,5-1.66,10.44-1.81,15.65-.11,4.06,1,8.45,7,8.05,12-.79,23.87.78,35.81,1.1,4.36.12,7.43-1.37,9.76-4.64,3.17-4.45,6.49-8.87,9-13.7,1.29-2.51,4-5.17,2.14-8.66,4.27-4.68,4.91-10.72,5.48-16.49C493.75,476.43,487,459.71,467.59,459.36Zm-358.82-1.11c-11.93.11-21.83,3.85-27.25,15.4-4.16,8.87-3.51,18-.9,27.09.75,5.43,3.71,9.93,6.15,14.66.94,3.61,2.15,8,5.9,8.49a16.94,16.94,0,0,1,9.76,4.89c4.19,3.9,8.53,6.31,14.6,5.81,6.74-.56,12.51-4.26,15.07-10.94s.63-16.26-4.28-20.1c-2.94-2.3-1.9-3.19.86-4.25a14.72,14.72,0,0,1,9.86-.38c-4.66-6.57-4.75-15.5-12-20.32-2.24-1.48-1.65-3,.76-3.81,2.23-.74,4.65-1.18,4.8-4.24,18.06,18,27.27,39,22,64.86a39.71,39.71,0,0,1-7.61,12.51c19.79-2.94,38.11-6.09,55.52-13.16,2.26-.92,3.19-1.7,1.55-4.17-2.44-3.69-3.23-7.92-3.29-12.37-.13-10.15-.49-20.3-.73-30.46,0-2.19-.2-3.68-3.27-3.47-11.72.78-22.64-2.6-33.47-6.72-8.6-3.27-16.19-8.45-24.49-12.25-7.69-6.67-16.87-8.28-26.65-7.87C110.57,457.32,109.49,457.14,108.77,458.25Zm395-37.62c2.24-4.76,4.72-9.35,6.24-14.5,2.65-9,3-8.86-6.16-9.48-2.08-.15-3.62-.6-4.24,2.41-3.17,15.44-12.55,26-26.62,32.56-3.45,1.61-4.84,3.54-2.54,7a31.4,31.4,0,0,0,2.56,8.67C485.31,440.56,497,433.47,503.76,420.63Zm-70-264c.78,3.58.29,8.3,5.47,8.67s10.54.67,15.82-.39c18.27-3.68,32.2-13.61,42.79-28.81,2.81-4,1.67-5.47-2.24-6.61.94-1.94,1.94-3.85,2.79-5.82,2.71-6.3,5.49-12.59,3.06-19.69,1.92-3.77,1-6.6-2.81-8.45-1.6-.79-3.06-2-5-1.91-3.56-.71-7.1-1.56-10.69-2.12a158.4,158.4,0,0,0-40.64-1.1c-9.4.95-18.78,1.92-27.91,4.42-1.79.49-4.19.73-3.72,3.67-1.82,2-3.7-.15-6-.41,2.75,6.13,7.86,9.75,10.83,14.84,2,3.43,4.23,3.61,7.26,2.07a101.49,101.49,0,0,1,24.22-8.68c8.11-1.8,16.22-3.31,24.57-2.65,3,.24,6.34,2.9,8.62-1.4.24-.45,1.19-.23,1.1.21-.6,3.11,3,1.33,3.48,3.08a41.09,41.09,0,0,1-13,3c-16.73,1.61-32.44,6.63-47.54,13.85-2.24,1.07-2.59,1.91-1.27,4,3,4.67,4.44,10,6.19,15.15C430.75,146.54,431.29,151.88,433.72,156.63Zm-277,182.84c-1.89-3.24-3.26-1.85-5.2.21-8.72,9.33-14.37,20.61-20,31.8-2.62,5.18-6,10.39-5.77,16.67-6.22,11.46-9.76,23.46-7.45,36.65A34.08,34.08,0,0,0,124,438.94c10.24,15.44,25.32,24.45,42,31.19,3.16,1.28,6.44,3.06,10.52,2.21-1.7-3.75-4.55-6.7-4-10.83,4.94.35,9.89.57,14.81,1.08,12.44,1.29,23.6-3.95,30.54-14.79-8.66-1-8.88-1.11-10.55-4.92,6.94,1.61,11.73-3.08,17.28-5.56,2.74-9.54-1.41-16.5-8.08-22.82-4.3-4.09-9.78-6-14.63-9-14-5.36-28-11.07-43.92-10.12a8.77,8.77,0,0,1,7.07-2.95c4.42,0,8.44,0,7.42-6.32a2,2,0,0,1,1.66-2.17c2.4,6.68,2.4,6.68,5.64,7.3,5.49,1.29,11,2.4,16.43,3.94,2.58.74,2.85-.2,2.83-2.27,0-3.83.08-7.66.1-11.49.06-10.82-.55-21.64.29-32.47.2-2.57,3.36-5.25,1.32-7.11-1.85-1.68-5.28-1.67-8-2.3-10-2.32-10-2.3-10.83,8-.37.65-.74,1.31-1.12,2C173.73,343.75,164.85,342.5,156.71,339.47Zm288,49a15.07,15.07,0,0,0-.51-3.91c-3.47-8.42-6.82-16.91-11.4-24.81-4.16-7.16-8.29-14.42-14.45-20.14-3.54-3.28-7.15-5-12.3-2a98.52,98.52,0,0,1-28.23,10.83c-1.59-2.49-1.41-5.4-2-8.13-.2-1,.63-2.83-1.22-2.59a20.94,20.94,0,0,0-6.56,2c-1,.52.22,1.73.63,2.52a27.58,27.58,0,0,1,2.81,13.45c-.13,12.91-.05,25.82-.05,39.65,6.28-3.1,12.53-2.62,18.36-4.34,2.45.54,4-.24,5-2.73a18.41,18.41,0,0,1,4.95-7.4,30.5,30.5,0,0,1-.35,3.6c-1.71,7-1.7,6.88,5.22,7.92,2.83.42,6.37-.13,8.34,4.28a18.25,18.25,0,0,0-8.34-1.5,108.21,108.21,0,0,0-37.14,10.09c-1,.48-1.71,1-1.36,2.21-9.56,1-15.83,6.64-20.15,14.72-2.66,4.95-3.84,10.13-.26,15.28.08,1.68,1.18,3.55,2.41,3.36,3.81-.58,7,2,10.66,1.65,1.17-.1,3.07-.74,3.4,1,.29,1.57-1.7,1.73-2.68,2.54-1.18,1-4,.61-3.05,3.48,3.32,9.78,13.28,14.92,23.82,13.35,5.68-.84,10.9-2.67,16.24-4.38l.3-.13c-1,4.71-2.28,9.32-5.54,13.09-.52.61-2,1-.69,2.24.68.66,1.23.53,2.15.25a150,150,0,0,0,30.66-13.09c10.73-6.2,19.71-14.21,25.54-25.31,8.3-15.84,3.55-31.05-2.55-46.13C446.18,389,445.27,388.83,444.7,388.52Zm22,60.55c-1.84-6.57-3-12.82-6.37-19.34-1.93,7.61-5.37,13.38-9.93,19.52A65.06,65.06,0,0,1,466.69,449.07Zm-289.5,23.6-.33.22c.08.09.16.26.26.27s.22-.12.33-.2Z"
      transform="translate(-31.97 -17.46)" style="fill:#1e203e" />
    <path
      d="M143.72,557.57c11.25-2.09,22.54-4,33.75-6.31,10.61-2.16,20.74-6,31-9.43,1.41-.46,2.67-1.15,4.26-.38,5,2.39,10.33,2.18,15.67,2.17q59.19-.06,118.39-.07c1.49,0,3.24.37,4.43-.26,7.66-4,14.74-1.34,21.8,1.58,13.13,5.42,27.15,7.57,40.75,11.27-2.26,2-5.24,2-7.89,2.17-20.72,1.08-41.4,2.58-62.15,3.35-39.62,1.47-79.23.89-118.84.49-22.24-.23-44.49-1.79-66.77-1.86-3.94,0-7.87-1.2-11.89-.92C145,559.46,143.93,559,143.72,557.57Z"
      transform="translate(-31.97 -17.46)" style="fill:#cfcfd1" />
    <path
      d="M64.55,293.4c3.14,18.81,13.08,30.41,32.25,33.6-7.61,3.6-15.93,4.93-21.74,11.31s-7.71,14.07-10.41,22.19C61,342.35,51,330.7,32,327,51.56,323.81,61.34,312.09,64.55,293.4Z"
      transform="translate(-31.97 -17.46)" style="fill:#fdce3f" />
    <path
      d="M86.25,366.74c1.68,9.16,6.86,15,15.84,18.06-8.61,2.8-13.7,8.15-15.18,17.25-2.69-8.84-7.39-15.39-17.27-17.64C79.46,382.27,84.42,376.13,86.25,366.74Z"
      transform="translate(-31.97 -17.46)" style="fill:#fdce3f" />
    <path
      d="M455.7,556.38c7.22-4,15.11-7,21.15-13,2-2,3.86-4,5.79-6,2.5,1.86,5.66,1.43,8.41,2.42,4.81,1.71,5.41,4.05,1.46,7.2a44.44,44.44,0,0,1-23.27,9.3C464.81,556.76,460.21,559.09,455.7,556.38Z"
      transform="translate(-31.97 -17.46)" style="fill:#cfcfd1" />
    <path
      d="M89.67,538.42A79,79,0,0,0,110.84,555c-2.31,2.79-5,.39-7.33.19-10.34-.87-20.12-3.8-28.76-9.83-1.2-.83-2.89-1.58-2.46-3.33.4-1.59,2.15-2.14,3.57-2.34C80.44,539.05,85,538.2,89.67,538.42Z"
      transform="translate(-31.97 -17.46)" style="fill:#cfcfd1" />
    <path
      d="M414.59,151.8l1.15,1.68c1.72,8.07,4.31,15.94,5.09,24.25,1,11,1.49,22.13,4,33,2.3,10,7.78,19,9.65,29.24,4.24,23.3-2.36,42.65-21,57.38-13,10.24-28.07,16-44,20-15.72,4-31.6,3.12-47.5,3-.4,0-.8-.52-1.2-.8,11.06-7,21-15.2,27.41-27,9-16.55,8.54-32.94-1.35-49-5.31-8.63-13.34-14.45-22-19-17.78-9.4-36.68-12.66-56.87-10.37-17.1,1.95-32.61,6.79-46.44,17.36-22.2,17-26,43.5-9.47,66,7.07,9.67,16.68,16,26,22.94-8,0-16,0-24,0-22.18-.18-43.05-5.22-62.08-16.93-12.41-7.64-22.8-17-28.32-31.08-2-5-2.74-10.35-4.49-15.55-.55.45-1,.63-1,.83-.11,2.82,0,5.65-.29,8.46-.25,2.5,1.24,5.36-1.3,7.47a61.21,61.21,0,0,1,1.92-41.39c6.77-16.61,9.8-33.66,10.45-51.46.87-23.88,8-46.05,20.28-66.54,1.44-2.39,3.28-4.88-.29-7.11-.75-2.07,1.23-5.34-1.43-6.22-2.49-.82-4.29,1.93-6.09,3.61-.72.68-1.45,1.36-2.12,2.09-2.58,2.81-5.24,3.24-8.82,1.37-5.77-3-12.16-4.1-18.64-4.41-1.82-.09-3.81-.19-4.08,2.44a193.61,193.61,0,0,0-38.77-2.54c-1.93,1-5,.82-5.11,3.9-.17,3.29-.33,6.55.83,9.82,5.26,14.91,15.53,25.43,29.41,32.14,8.27,4,17.31,6.46,26.81,4.07l2,0,.91,1.17c0,.68-.09,1.37-.14,2l-17.64,1c-1.61-.38-3.2-.87-4.83-1.1a56.27,56.27,0,0,1-27.22-11.24c-3.33-2.61-5.8-6.35-10-7.82A53.33,53.33,0,0,1,52.19,112.6C50.56,104,54.27,97.71,62.47,94.54a63.35,63.35,0,0,1,20.47-3.76c22.89-.91,45.83-1.79,67.93,6.44a9,9,0,0,1,5.09,4.3,46.28,46.28,0,0,0,9.68-10.78,18.19,18.19,0,0,1,3.81-2.27c6.74-3.22,13.46-6.52,18.87-11.88,2.08-.15,3-1.92,4.28-3.13,5.66-5.34,5.32-4.95-.35-9.21-11.12-8.35-19.37-18.9-22.51-32.83l2.17,0c1.78,2.78,3.76,5.46,5.29,8.37,5.52,10.48,14,17.93,23.74,24.3,2,1.32,3.47,1,5.43,0a159.68,159.68,0,0,1,86.35-16.57q-1.28,3.3-2.57,6.6c-5.54,15.18-.85,28.72,7.17,41.43,10.54,16.71,26.18,26.33,45.14,30.95-.87,2-4.31,3.07-2.6,5.83,1.58,2.54,4.27,1,6.43.65a32.06,32.06,0,0,1,8.41-.73c6.52.57,11.59,3.71,16,8.36.78.84,1.67,2.59,3.14,1.6,1.24-.84.35-2.41.33-3.7,0-1.62-2.71-3-.49-4.78a6.39,6.39,0,0,0,1.81.66c13.2.81,24.56,6,34.61,14.38A45.08,45.08,0,0,0,414.59,151.8ZM222.8,197.61c0-9.78-1.07-17.14-5.37-23.64-7.14-10.79-20.65-11.77-29.38-2.19-10.4,11.42-10.92,35.57-1,47.45,8.31,10,22.48,9.27,29.8-1.52A35.31,35.31,0,0,0,222.8,197.61Zm111.72-2.06c-.17,8.89,1.47,17.23,7.4,24.24a18,18,0,0,0,27.25.22c10.79-12.23,10.38-37.14-.81-48.92-7.63-8-19.55-7.74-26.71.67C335.78,178.65,334.56,186.92,334.52,195.55ZM164.43,258.49a38.72,38.72,0,0,0,18.17-3.58c12.34-5.67,12.8-17.16,5.09-24.58-9.5-9.12-26.36-11.19-38.09-5.05-5.88,3.07-10.76,7.88-10.62,15.11s4.5,12.08,10.81,14.86C154.46,257.3,159.44,258.83,164.43,258.49Zm227.93-36.05c-9.62,0-16.07,1.88-21.92,6.2-6.61,4.88-8.4,14.27-3.73,20.24a22.74,22.74,0,0,0,10.76,7.74c10.94,3.74,21.46,2,31.33-3,11.17-5.63,11.81-17.86,1.85-25.53A25.91,25.91,0,0,0,392.36,222.44Zm-189.67-97.2a20.93,20.93,0,0,0-8.33,1.35c-6.67,2.6-11.63,7-14.37,13.73-.56,1.34-.61,2.71.76,3.55,1.18.72,1.73-.49,2.33-1.17,7.62-8.63,16.92-12,28.26-9.2,1.48.37,3.06.54,3.85-1.27s-.11-3.26-1.56-4.27A16.9,16.9,0,0,0,202.69,125.24Z"
      transform="translate(-31.97 -17.46)" style="fill:#fcfcfc" />
    <path
      d="M237.91,320.52c-9.29-6.92-18.9-13.27-26-22.94-16.49-22.53-12.73-49.06,9.47-66,13.83-10.57,29.34-15.41,46.44-17.36,20.19-2.29,39.09,1,56.87,10.37,8.68,4.59,16.71,10.41,22,19,9.89,16,10.31,32.41,1.35,49-6.38,11.76-16.35,19.92-27.41,27-5.2,2.23-10.32,4.66-15.83,6.1a2.93,2.93,0,0,0-2.17,2.92l-37.92-.07C256.15,324.66,246.75,323.55,237.91,320.52Zm24.71-4.3c7.18,3.32,14.67,3.51,22.32,2.27,1.15-.08,2.32-.09,3.47-.25,13-1.91,22.25-9.75,30.08-19.59,2.07-2.6,4.21-4.29,7.65-4.75a11.66,11.66,0,0,0,8-4.89,11.18,11.18,0,0,1-10.63-.95,5.27,5.27,0,0,0-4.34-.31,11.11,11.11,0,0,0-6.77.86c-8.05,3.23-16.3,5.55-25.13,4.92-4.1-.29-8.31-1-12.31-.44-7.21,1-14.16-.42-21.22-1-5.41-.43-9.66-4.38-15.08-4.6C234,287.4,230,291.75,224.8,289c.08,3.47,2.43,4.44,4,4.57,7.91.64,11.72,6.83,16.43,11.69,4.09,4.21,8.23,8.1,14,9.74l2.24.9Zm-46.49-62.46c6.27-12.75,18.06-17.69,30.38-21.63,15.92-5.09,32.38-6.53,48.69-3.33s33.16,6.24,44,21.21c.09.12.57,0,1-.08a4,4,0,0,0-.14-1.37,30,30,0,0,0-1.73-3c-6.34-9.66-15.8-15.14-26.25-18.94-17.78-6.47-36.1-6.35-54.55-3.52-13.94,2.14-26,7.86-35.41,18.57C219.2,245.05,215.78,248.42,216.13,253.76Zm93.12-8.56c-5.24-.13-10.26,5.92-10.38,12.5-.08,4.87,2.78,7.93,7.47,8a11.81,11.81,0,0,0,11.51-11.39A8.86,8.86,0,0,0,309.25,245.2Zm-59.37,20.5c4.6.2,7.64-2.26,7.88-6.37.41-7.06-4.45-13.76-10.09-13.92-4.7-.13-8.65,3.85-8.89,9C238.52,259.93,243.92,265.45,249.88,265.7Z"
      transform="translate(-31.97 -17.46)" style="fill:#fcb9c2" />
    <path
      d="M340.77,456.36c.47,1.4.94,2.8,1.4,4.19-5.05,1.22-10.19.86-15.31.94-4.19.06-6.47,1.78-6.2,6.37a98.76,98.76,0,0,1,0,11.92,8.29,8.29,0,0,0,3.16,7.39l-.87,1.55c-1.85,1.07-2.09,2.88-2.12,4.73-.05,3.65-.11,7.31-.06,11,.17,15.12-2.1,13.21,13.14,13.05,4,0,8.36,1.37,11.83-2a3.08,3.08,0,0,0,1.87-2.73q.06-9.68,0-19.36a3,3,0,0,0-2.66-3.08c-.55-2.73-2.52-3.07-4.87-3.07-5.12,0-10.25-.14-15.38-.21,5.62-1,11.28-.33,16.92-.48,2.89-.08,5.38-.48,6-3.88.42-2.28,1.27-2.39,2.87-.79,5.06,5.07,8.86,10.43,7.42,18.29-.7,3.88-.05,8-.22,12-.4,9.08-6.9,15.35-15.85,15.27-38.6-.36-77.22.91-115.81-.89-7.18-.34-12.13-4.89-13.45-12-1.26-6.83.19-13.58-.18-20.25-.45-8,4.28-11.47,9.41-15.62,1.93,7,3.21,7.9,10.62,7.9,3.83,0,7.67-.16,11.49,0,4.52.18,6.42-2.35,6.64-6.34a108.25,108.25,0,0,0,0-12.48c-.23-4-2.2-6.51-6.7-6.28-2.82.14-5.66.05-8.49,0-1.51,0-3.32,0-3.26-2.13.06-1.88,1.29-2.95,3.34-2.88,1.66.06,3.33,0,5,0,9,0,10.21-1.22,10.22-10.45,0-2.33,0-4.67,0-7-.06-6.39-1.82-8-8.38-8.45-2.17-.15-6.11,1.59-6.16-1.88-.06-4.19,4.1-1.86,6.34-2.17,3.72-.52,7.15-1.12,7.31-5.76.16-4.83.14-9.66,0-14.49-.1-3.26-2.05-5.73-5.23-5.52-8.23.54-17.67-3.4-23.81,5.81-2.77-1.81-5.35-4.09-8.36-5.31-4.21-1.73-4.74-4.63-4.59-8.6.39-10.41-.54-20.83.32-31.25,2.7-2.13,1.93-5.33,2.27-8.07,1-8.18,5.95-12.9,14.25-12.91,38.8,0,77.6,0,116.4-.13,6.08,0,11.88.32,16.91,4.17,3.4-.54,2.29,3,3.74,4.17-2.38,4.07-3,8.48-2.92,13.16.11,12.55-.05,25.11-.11,37.67l-10.91,7.05c-.59-4.18-3.15-5.95-7.21-5.94-4.47,0-8.95,0-13.42,0s-6.32,2.3-6.38,6.49c0,1.16,0,2.32,0,3.48,0,16.87-1.49,15.06,14.69,15.27l-.78,4.68c-2.16,0-4.32,0-6.48.08-5.52.23-7.33,2.1-7.38,7.68,0,3.49-.07,7,0,10.47.14,5.51,2,7.46,7.54,7.73C332.45,456.55,336.62,456.37,340.77,456.36Zm-118-66.89,0-.06,1.05,1-.06-.05c3.57,3.33,7.9,1.84,12,1.87,26,.4,52,.72,78,0,9.46,0,18.93.2,28.39,0,2,0,4.84.25,5.57-2.85l0,0q1.09.07,1-1l0,0c2.41-.44,2.7-1.5.92-3.17a.64.64,0,0,1,0-.64c2.93-2.66,3.05-19,.16-22.1-.42-7.25-2.82-10.11-8.73-10.12q-55.41,0-110.82,0c-7.17,0-9.7,2.87-9.32,10.15l0,21.8c-.19.94,0,1.72,1,2.07-.06.5-.12,1-.17,1.49Zm57.92,44,0,0c-.13-1.13-.71-1.9-1.88-1.91-6.14,0-12.3-.28-18.42.08-2.89.17-4.59,2.45-4.6,5.56,0,4.15,0,8.3,0,12.45,0,3.78,1.88,6.08,5.54,6.39,5.6.49,11.24.83,16.82-.44a6.11,6.11,0,0,0,3.16-1.3C283.76,452,283.28,435.84,280.72,433.45Zm32,61,0,0c.13-2.06-1.52-2.71-2.89-2.75-6-.19-11.94-.32-17.89,0-1.73.09-4.11,1.31-4.12,3.66,0,5.95-.61,11.93.64,17.84.6,2.82,2.17,4.36,5.16,4.34q8-.06,15.93,0c2,0,3.83-.52,4.34-2.59,1.63-6.65,1.29-13.36.14-20.05C314,494.71,313.14,494.63,312.68,494.49Zm-2-32.05,0,0c-6.5-1.89-13.09-1-19.63-.49-2.21.16-3.2,2.28-3.24,4.45-.08,4.66-.23,9.33,0,14,.18,3.19,1.62,5.89,5.43,5.95,5.15.08,10.32.21,15.46-.08,3.18-.18,5.83-1.68,5.86-5.5,0-4.83,0-9.65,0-14.47C314.7,463.6,313.43,462.29,310.71,462.44ZM282.82,504.7c0-13.26,0-13.18-13.08-13.29-14-.12-14.13-.21-14,14,.11,12.7.32,13,13.21,13C282.81,518.4,282.81,518.4,282.82,504.7ZM270,400.6c-2,0-4,0-6,0-6.15.07-8.05,1.94-8.13,8-.05,3.17-.05,6.33,0,9.5.06,6.23,1.9,8.22,8,8.16,3.47,0,6.94-.66,10.41-.75,7.9-.21,8.46-.71,8.5-8.63,0-1.17,0-2.34,0-3.5C282.56,401.92,285.23,400.16,270,400.6Zm-34.39,90.84h-6.07c-5,.2-6.73,1.91-6.8,7.05-.06,3.81,0,7.62,0,11.44,0,5.68,2.73,8.45,8.56,8.42,3.79,0,7.57-.61,11.36-.73,5.8-.18,7.61-1.8,8-7.66.12-1.65,0-3.32,0-5C251,491.18,250.62,491.16,235.58,491.44Zm65.92-65.89c2.32,0,4.65-.09,7,0,4.41.22,6.45-1.74,6.28-6.21-.15-3.81,0-7.63-.07-11.44-.11-4.34-2.84-7.21-7-7.31-4.64-.11-9.29-.08-13.93,0-3.8.07-5.72,2.2-5.86,5.94-.07,1.82,0,3.65,0,5.48C287.82,425.55,287.82,425.55,301.5,425.55Zm-18.71,48.63q0-4,0-8c0-2.5-1.18-4.31-3.68-4.56-5.1-.5-10.19-1.52-15.36-1-6.8.7-7.87,1.91-7.92,8.77v2.5c0,14.47,0,14.47,14.66,14.48C282.79,486.42,282.79,486.42,282.79,474.18Zm18.59-17.8c2,0,4,0,6,0,5.69-.08,7.29-1.69,7.35-7.49.05-4,0-8,0-12,0-3.1-1.42-4.61-4.45-5.62-4.4-1.46-8.53.35-12.8.24-9.55-.26-9.66,0-9.68,9.77,0,.5,0,1,0,1.5C287.79,456.26,287.87,456.35,301.38,456.38Z"
      transform="translate(-31.97 -17.46)" style="fill:#756ac3" />
    <path
      d="M342.46,126.57c-19-4.62-34.6-14.24-45.14-30.95-8-12.71-12.71-26.25-7.17-41.43,13.64,1.48,27.2,3.27,40.41,7.32,10.93,3.34,20.54,9.17,30.29,14.79,2.91,1.68,3.88,1.17,3.93-2,2.69,1.58,4.42,4.7,8,4.93,5.1,4.31,11.46,6.48,17,10,2.61,6,7.78,10.11,11.73,15.09,1.65,2.08,3.54,3.85,3.84,6.45.9,7.95,5.55,14.66,7.17,22.37,1.3,6.15,2.91,12.25,2.1,18.64a45.08,45.08,0,0,1-4.52-3c-10.05-8.39-21.41-13.57-34.61-14.38a6.39,6.39,0,0,1-1.81-.66C365,123.72,354.43,122.2,342.46,126.57Z"
      transform="translate(-31.97 -17.46)" style="fill:#343a55" />
    <path
      d="M179.75,391.2c-3.24-.62-3.24-.62-5.64-7.3a2,2,0,0,0-1.66,2.17c1,6.33-3,6.28-7.42,6.32a8.77,8.77,0,0,0-7.07,2.95c15.93-.95,29.88,4.76,43.92,10.12.8,2.9-2.45,2.12-3.24,3.56-19.48,11.18-29.25,27.72-27.81,50.43-22.37-6.64-42.3-16.23-49.64-41.84-.77,3.12.28,6.1-2.93,7.19-2.31-13.19,1.23-25.19,7.45-36.65a3.93,3.93,0,0,0,4-.53c9.64-1.57,18.5-5.51,26.78-10.32,11.09-6.44,20.15-15.09,24.28-27.82.38-.65.75-1.31,1.12-2,6.57,1.37,10.49,5.63,10.57,12.09a55,55,0,0,1-5.17,23.57c-.72,1.57-2.17,3.4-4.19,3.05-2.25-.4-1-2.81-1.64-4.23a13.44,13.44,0,0,1-.67-2.9c-.17-.93.09-2.28-1.35-2.15-1.08.09-1.56,1.18-1.6,2.23C177.65,383.31,176,387.7,179.75,391.2Z"
      transform="translate(-31.97 -17.46)" style="fill:#fcfcfc" />
    <path
      d="M366.11,407.53c-.35-1.24.35-1.73,1.36-2.21a108.21,108.21,0,0,1,37.14-10.09,18.25,18.25,0,0,1,8.34,1.5c-2-4.41-5.51-3.86-8.34-4.28-6.92-1-6.93-.9-5.22-7.92a30.5,30.5,0,0,0,.35-3.6,18.41,18.41,0,0,0-4.95,7.4c-1,2.49-2.52,3.27-5,2.73-10.38-10.47-11.47-23.44-10-37.09,4.44,6.85,9.27,13.51,16.56,17.44,13,7,27.23,10.89,41.19,15.43L440,388l1.58,1c1,2.08,2.2,4.1,3,6.26C449,407,450.24,418.79,443,430c-9.05,14-22.66,21.9-37.9,27.39a15.59,15.59,0,0,1-8.29,1l-.3.13a48.51,48.51,0,0,0-2.33-19.82,55.27,55.27,0,0,0-22.41-29.31A5.79,5.79,0,0,0,366.11,407.53Z"
      transform="translate(-31.97 -17.46)" style="fill:#fcfcfc" />
    <path
      d="M486.73,508.55c1.89,3.49-.85,6.15-2.14,8.66-2.47,4.83-5.79,9.25-9,13.7-2.33,3.27-5.4,4.76-9.76,4.64-11.94-.32-23.84-1.89-35.81-1.1-6,.4-7.09-4-7-8.05.15-5.21-.11-10.66,1.81-15.65.95-2.47,2-5.21,5.72-5.37s5.55,1.5,6.87,4.53a20.78,20.78,0,0,0,1.88,2.93c.89,1.33,1.62,3.68,3.39,3,2-.8,1.42-3.67.72-4.87-2-3.42-.82-6.25.57-9.28.92-2,.85-3.22-2-2.47a55.25,55.25,0,0,1-7.82,1.18c-2.33.25-4.29-.1-2.81-3.22,2.92-6.15,6-12.23,10.52-17.42,2.69-3.07,5.27-6.23,7.89-9.35a28,28,0,0,1,18.57-4.86c11.64,3.22,17.79,11.17,19.24,22.86C488.43,495.11,489.33,501.93,486.73,508.55Z"
      transform="translate(-31.97 -17.46)" style="fill:#343a55" />
    <path
      d="M132.06,470.55c-.15,3.06-2.57,3.5-4.8,4.24-2.41.79-3,2.33-.76,3.81,7.29,4.82,7.38,13.75,12,20.32a14.72,14.72,0,0,0-9.86.38c-2.76,1.06-3.8,1.95-.86,4.25,4.91,3.84,6.83,13.43,4.28,20.1S123.77,534,117,534.59c-6.07.5-10.41-1.91-14.6-5.81a16.94,16.94,0,0,0-9.76-4.89c-3.75-.49-5-4.88-5.9-8.49,1.85-.84,2.18-2.12,1.49-4-1.56-4.27-3-8.59-4.42-12.89-1.77-23.5,9.31-34,29.05-33,2,.71,4.15,1.13,6,2.18,4.25,2.48,5.31.66,5-3.37A38.24,38.24,0,0,1,132.06,470.55Z"
      transform="translate(-31.97 -17.46)" style="fill:#343a55" />
    <path
      d="M220.73,406.48c6.14-9.21,15.58-5.27,23.81-5.81,3.18-.21,5.13,2.26,5.23,5.52.14,4.83.16,9.66,0,14.49-.16,4.64-3.59,5.24-7.31,5.76-2.24.31-6.4-2-6.34,2.17,0,3.47,4,1.73,6.16,1.88,6.56.46,8.32,2.06,8.38,8.45,0,2.33,0,4.67,0,7,0,9.23-1.18,10.43-10.22,10.45-1.67,0-3.34.06-5,0-2-.07-3.28,1-3.34,2.88-.06,2.08,1.75,2.11,3.26,2.13,2.83,0,5.67.12,8.49,0,4.5-.23,6.47,2.27,6.7,6.28a108.25,108.25,0,0,1,0,12.48c-.22,4-2.12,6.52-6.64,6.34-3.82-.16-7.66,0-11.49,0-7.41,0-8.69-.92-10.62-7.9-5.13,4.15-9.86,7.64-9.41,15.62.37,6.67-1.08,13.42.18,20.25,1.32,7.16,6.27,11.71,13.45,12,38.59,1.8,77.21.53,115.81.89,8.95.08,15.45-6.19,15.85-15.27.17-4-.48-8.09.22-12,1.44-7.86-2.36-13.22-7.42-18.29-1.6-1.6-2.45-1.49-2.87.79-.63,3.4-3.12,3.8-6,3.88-5.64.15-11.3-.54-16.92.48a1.22,1.22,0,0,1-.91.16,8.29,8.29,0,0,1-3.16-7.39,98.76,98.76,0,0,0,0-11.92c-.27-4.59,2-6.31,6.2-6.37,5.12-.08,10.26.28,15.31-.94.19.85.37,1.7.56,2.55-5.15,0-10.3,0-15.45,0-2.59,0-4.12,1-4.13,3.79,0,4.33,0,8.66-.11,13-.05,2.64,1.37,3.47,3.76,3.46,4.83,0,9.66-.07,14.49.11,3,.11,3.66-1.42,3.6-4-.09-3.66,0-7.32.05-11a5.13,5.13,0,0,1,5.08,2.35,18.72,18.72,0,0,0,5.49,5.74c6.64,3.89,7,10.29,7.11,16.7a210.87,210.87,0,0,1-.76,27.41c-.87,8.12-6.73,13.78-14.92,13.79q-60.74,0-121.48,0c-9.22,0-16.25-6.13-16.61-15.48-.45-11.82-.14-23.66-.13-35.49,0-.81,0-2,.46-2.36,4.95-3.65,8.75-8.77,13.7-12.05,2.28-1.52.63-4.78,3.6-4.76-.19,4.77-.28,9.55-.61,14.32-.24,3.5,1.23,4.78,4.65,4.64,4.14-.17,8.3-.07,12.46,0,3.1,0,4.6-1.48,4.61-4.54q0-6.22,0-12.46c0-1.39-.12-2.73-2-2.84-5.63.1-11.31-1-16.86.79l-2.14-.08c.24-5.18,3.26-9.27,5.39-13.71,3.38,3.63,7.88,2.45,12,2.77,2.53.2,3.64-1.11,3.64-3.57,0-4.32,0-8.64.07-13,.05-2.28-.83-3.42-3.18-3.35a39.57,39.57,0,0,1-5,0c-3-.3-3.85.85-4.07,3.9-.3,4-.17,8.33-3.1,11.73-1.54-3.53.3-6.83.84-10.17a32.39,32.39,0,0,0,.39-8.38c-.27-2.55-1.76-5.26,2.18-6.24l-1.26-1.31a74.88,74.88,0,0,1,7.92-.16c3.54.28,4.71-1.18,4.53-4.59a43.14,43.14,0,0,1,.49-9.88c.54-3.09-.73-5.07-4.38-4.92a111.21,111.21,0,0,1-12.91,0c-4.09-.29-5.9,1.25-5.67,5.29C223.15,408.12,221.65,407.83,220.73,406.48Z"
      transform="translate(-31.97 -17.46)" style="fill:#454383" />
    <path
      d="M302.68,328.54a2.93,2.93,0,0,1,2.17-2.92c5.51-1.44,10.63-3.87,15.83-6.1.4.28.8.8,1.2.8,15.9.11,31.78.95,47.5-3,16-4,31.06-9.75,44-20,18.68-14.73,25.28-34.08,21-57.38-1.87-10.22-7.35-19.21-9.65-29.24-2.49-10.84-2.95-21.95-4-33-.78-8.31-3.37-16.18-5.09-24.25,2.41,1.06,4.41,3.09,7.19,3.23,2.24.11,2,1.89,2.35,3.22a108.43,108.43,0,0,1,3.23,23.66c.3,15.13,2.72,29.68,8.61,43.73,5.55,13.26,7.86,27.17,5.06,41.48-4.23,21.64-17.36,36.74-35.9,47.64-13.64,8-28.73,12.11-43.9,15.95a4.86,4.86,0,0,1-3.86-.27c-5.27-3-11.06-3.17-16.93-3.19C328.62,328.89,315.65,328.68,302.68,328.54Z"
      transform="translate(-31.97 -17.46)" style="fill:#cfcfd1" />
    <path
      d="M489.69,333.5l2-3c1.92.08,2.88-1.41,4.05-2.53,7-6.72,11.85-14.9,16-23.53,7.79,3.87,10,11.31,12,18.86-.89,3.68.46,7,1.7,10.33.26.7.65,1.78,1.6,1.19.44-.26.31-1.45.43-2.21l1.39,0c.24,6.53,2.24,12.63,4.63,18.64-2.06,8-5.61,14.83-13.71,18.29-3.08,1.32-7.7-.67-7.94-4s-1.18-6.66.95-9.68c.74-1.05,1.14-2.26.32-3.22a12.62,12.62,0,0,1-2.92-8.77c-2.71,2.22-3.81,5-4.69,8-1.62,5.36-2.39,11-5.78,15.73-.8,1.13-1.24,2.45.25,3.49,1.3.9,2.1,1.92.33,3-1.54.94-3,.08-4-1.05-4.1-4.76-9.77-17.57-10.95-24.37-2,3.13-2,3.13-.89,16.87a15.42,15.42,0,0,1-8-18.74c.57-1.69,1.11-3.14,3.14-3.33.25.88-.19,2.24,1,2.49s.9-1,1.17-1.72C483.43,339.9,484.45,335.12,489.69,333.5Zm24.74,29.14a1.28,1.28,0,0,0-.13-.39s-.22.05-.34.09a1.21,1.21,0,0,0,.14.39S514.31,362.68,514.43,362.64Z"
      transform="translate(-31.97 -17.46)" style="fill:#343a55" />
    <path
      d="M170.83,459.45c-1.44-22.71,8.33-39.25,27.81-50.43.69,2.67,3.23,2.58,5.11,3.27,10.68,3.95,18,10.61,19,22.65.1,1.25.26,2.33,1.84,2.38-5.55,2.48-10.34,7.17-17.28,5.56,1.67,3.81,1.89,3.91,10.55,4.92-6.94,10.84-18.1,16.08-30.54,14.79-4.92-.51-9.87-.73-14.81-1.08C171.19,461.44,171.44,460.1,170.83,459.45Z"
      transform="translate(-31.97 -17.46)" style="fill:#343a55" />
    <path
      d="M371.76,409.42a55.27,55.27,0,0,1,22.41,29.31,48.51,48.51,0,0,1,2.33,19.82c-5.34,1.71-10.56,3.54-16.24,4.38-10.54,1.57-20.5-3.57-23.82-13.35-1-2.87,1.87-2.49,3.05-3.48,1-.81,3-1,2.68-2.54-.33-1.76-2.23-1.12-3.4-1-3.69.34-6.85-2.23-10.66-1.65-1.23.19-2.33-1.68-2.41-3.36a16.36,16.36,0,0,0,.94-3.32c.58-9.9,5.47-16.69,14.37-21C364.49,411.55,368.26,410.92,371.76,409.42Z"
      transform="translate(-31.97 -17.46)" style="fill:#343a55" />
    <path
      d="M437.55,386.84c-14-4.54-28.2-8.42-41.19-15.43-7.29-3.93-12.12-10.59-16.56-17.44-.66-1.84-1.33-3.67-2-5.5A98.52,98.52,0,0,0,406,337.64c5.15-2.93,8.76-1.26,12.3,2,6.16,5.72,10.29,13,14.45,20.14,4.58,7.9,7.93,16.39,11.4,24.81a15.07,15.07,0,0,1,.51,3.91l-3.11.47L440,388c2.24-1.1,1-2.7.58-4.17a1,1,0,0,0-1.46-.78C437.49,383.78,437.82,385.45,437.55,386.84Z"
      transform="translate(-31.97 -17.46)" style="fill:#343a55" />
    <path
      d="M455,459.88c-9.08,2.41-15.07,8.88-20.55,15.87C425,487.83,417.8,501,416.12,516.6a61.9,61.9,0,0,0,1.25,18.82,48.72,48.72,0,0,1-23.08-5.23C388,527,384.07,522,383.65,514.5c-.48-8.5,2.23-15.41,9.44-20.13a76.78,76.78,0,0,1,10.94-6c10.24-4.55,19.44-10.81,28.74-16.93,3.17-2.09,4.07-4.26.9-7.06,6.54-7.56,15.65-6.15,24.12-6.93C458.05,459.61,455.85,459,455,459.88Z"
      transform="translate(-31.97 -17.46)" style="fill:#fcfcfc" />
    <path
      d="M132.06,470.55a38.24,38.24,0,0,0-8.18-6.25v.09l-2.1-1.46a1.08,1.08,0,0,0-1.43-.54l-1.62-1c-2-2.05-5.52-1.25-7.11-4,9.78-.42,19,1.19,26.65,7.86-5,1.49-1.2,3.5,0,4.67,1.5,1.45,3.63,2.19,5.23,3.71a71.38,71.38,0,0,0,21.73,13.74,84.13,84.13,0,0,1,15.56,8.77c9.52,6.69,10.07,27-2,33.35a46.76,46.76,0,0,1-24.74,5.85C159.33,509.52,150.12,488.54,132.06,470.55Z"
      transform="translate(-31.97 -17.46)" style="fill:#fcfcfc" />
    <path
      d="M433.67,464.4c3.17,2.8,2.27,5-.9,7.06-9.3,6.12-18.5,12.38-28.74,16.93a76.78,76.78,0,0,0-10.94,6c-7.21,4.72-9.92,11.63-9.44,20.13.42,7.48,4.37,12.45,10.64,15.69a48.72,48.72,0,0,0,23.08,5.23,38.75,38.75,0,0,0,7,12.26,214.15,214.15,0,0,1-58.8-14.31c8.37-10,4.52-21.79,5.72-32.74.54-4.94-1.35-11,.89-14.66s8.78-1,13.37-2A141.12,141.12,0,0,0,433.67,464.4Z"
      transform="translate(-31.97 -17.46)" style="fill:#cfcfd1" />
    <path
      d="M237.91,320.52c8.84,3,18.24,4.14,26.85,8-14,.25-28,.53-41.95.71-2.37,0-4.9-.05-6.82,1.15-6.76,4.25-13.6,2.55-20.65,1.13-19.27-3.9-37.8-9.78-53.71-21.69-12.23-9.15-21.65-20.66-25.17-36.08,2.54-2.11,1.05-5,1.3-7.47.28-2.81.18-5.64.29-8.46,0-.2.44-.38,1-.83,1.75,5.2,2.52,10.52,4.49,15.55,5.52,14.06,15.91,23.44,28.32,31.08,19,11.71,39.9,16.75,62.08,16.93C221.93,320.56,229.92,320.52,237.91,320.52Z"
      transform="translate(-31.97 -17.46)" style="fill:#cfcfd1" />
    <path
      d="M154.07,535.41a46.76,46.76,0,0,0,24.74-5.85c12.06-6.39,11.51-26.66,2-33.35a84.13,84.13,0,0,0-15.56-8.77,71.38,71.38,0,0,1-21.73-13.74c-1.6-1.52-3.73-2.26-5.23-3.71-1.2-1.17-5-3.18,0-4.67,8.3,3.8,15.89,9,24.49,12.25,10.83,4.12,21.75,7.5,33.47,6.72,3.07-.21,3.22,1.28,3.27,3.47.24,10.16.6,20.31.73,30.46.06,4.45.85,8.68,3.29,12.37,1.64,2.47.71,3.25-1.55,4.17-17.41,7.07-35.73,10.22-55.52,13.16A39.71,39.71,0,0,0,154.07,535.41Z"
      transform="translate(-31.97 -17.46)" style="fill:#cfcfd1" />
    <path
      d="M120.81,153.46c-9.5,2.39-18.54-.07-26.81-4.07-13.88-6.71-24.15-17.23-29.41-32.14-1.16-3.27-1-6.53-.83-9.82.16-3.08,3.18-2.88,5.11-3.9a5.75,5.75,0,0,0,4.83,3c1.78,5.48,7,5.72,11.25,6.83a72,72,0,0,1,30.1,16.7c-3.59,1.87-7.91.9-11.27,3.66,2.56,1.58,5,1.59,7.5,1.92,4.13.56,8.15,2,8.36,6.94C119.79,146.28,120.56,149.83,120.81,153.46Z"
      transform="translate(-31.97 -17.46)" style="fill:#fcb9c2" />
    <path
      d="M180.74,349.48c-4.13,12.73-13.19,21.38-24.28,27.82-8.28,4.81-17.14,8.75-26.78,10.32,3.43-10.43,8.56-20.07,14-29.54,3.78-6.59,7.27-13.4,13-18.61C164.85,342.5,173.73,343.75,180.74,349.48Z"
      transform="translate(-31.97 -17.46)" style="fill:#343a55" />
    <path
      d="M484.71,105.55c-.49-1.75-4.08,0-3.48-3.08.09-.44-.86-.66-1.1-.21-2.28,4.3-5.61,1.64-8.62,1.4-8.35-.66-16.46.85-24.57,2.65A101.49,101.49,0,0,0,422.72,115c-3,1.54-5.27,1.36-7.26-2.07-3-5.09-8.08-8.71-10.83-14.84,2.31.26,4.19,2.36,6,.41,3.17,1.55,6.5,1.36,9.76.6a198.69,198.69,0,0,1,41.9-4.68c9-.15,17.9,1.31,26.88,1,1.59,0,3.89,1,4.42-1.83,1.94-.09,3.4,1.12,5,1.91,3.77,1.85,4.73,4.68,2.81,8.45-3.56-2.68-12.17-3.17-15.5-.82-.19.13.07.9.12,1.38Z"
      transform="translate(-31.97 -17.46)" style="fill:#343a55" />
    <path
      d="M372.73,79.23c-3.53-.23-5.26-3.35-8-4.93-.45-2.74-3.51-3.57-4.39-6,.27-1.06,0-2.51,1.65-2.65,3.46-.29,5.56-2.79,7.84-4.89,6.93-6.39,11.89-14.14,15.68-22.74,3.44-7.81,4.85-8.53,13.2-8.08A4.85,4.85,0,0,1,401,32.53c-3,1.14-2.27,3.78-2.18,6,.4,10-2,19.26-5.64,28.47-2.91,7.34-7.94,10.06-15.39,9.61C375.64,76.45,373.22,76.11,372.73,79.23Z"
      transform="translate(-31.97 -17.46)" style="fill:#fdce3f" />
    <path
      d="M441.59,389l3.11-.47c.57.31,1.48.48,1.67,1,6.1,15.08,10.85,30.29,2.55,46.13-5.83,11.1-14.81,19.11-25.54,25.31A150,150,0,0,1,392.72,474c-.92.28-1.47.41-2.15-.25-1.29-1.22.17-1.63.69-2.24,3.26-3.77,4.52-8.38,5.54-13.09a15.59,15.59,0,0,0,8.29-1C420.33,451.91,433.94,444,443,430c7.25-11.22,6-23,1.61-34.76C443.79,393.09,442.6,391.07,441.59,389Z"
      transform="translate(-31.97 -17.46)" style="fill:#cfcfd1" />
    <path
      d="M169.74,31.42c3.14,13.93,11.39,24.48,22.51,32.83,5.67,4.26,6,3.87.35,9.21-1.28,1.21-2.2,3-4.28,3.13-3.45-.2-6.8-1.56-10.33-1-2.74.42-4.76-.72-6.52-2.75-7.63-8.8-11.61-19.11-12.77-30.6-.16-1.59.56-3.37-1-4.66-.58-2.17,2-4.12.45-6.36L157.79,30a.47.47,0,0,1,.43-.43l9.4-.46-.38-.11s.17-.35.17-.34A5.09,5.09,0,0,0,169.74,31.42Z"
      transform="translate(-31.97 -17.46)" style="fill:#fdce3f" />
    <path
      d="M120.81,153.46c-.25-3.63-1-7.18-1.17-10.84-.21-5-4.23-6.38-8.36-6.94-2.46-.33-4.94-.34-7.5-1.92,3.36-2.76,7.68-1.79,11.27-3.66A72,72,0,0,0,85,113.4c-4.2-1.11-9.47-1.35-11.25-6.83,19.92,2.36,39.18,7,57.32,15.9,3.26,1.6,4.27,2.73,2.24,6.1-4.59,7.61-6,16.44-9,24.66l-1.41.21Z"
      transform="translate(-31.97 -17.46)" style="fill:#ea8895" />
    <path
      d="M486,104.54c0-.48-.31-1.25-.12-1.38,3.33-2.35,11.94-1.86,15.5.82,2.43,7.1-.35,13.39-3.06,19.69-.85,2-1.85,3.88-2.79,5.82-12.37,17.53-28.6,28-50.7,27.65a4.16,4.16,0,0,1,3.63-3.56c7-1.29,13.23-4.55,18.94-8.53,12.39-8.65,21.27-19.81,23.85-35.25.46-2.8-.24-4.12-2.88-4.6A2.54,2.54,0,0,0,486,104.54Z"
      transform="translate(-31.97 -17.46)" style="fill:#fcfcfc" />
    <path
      d="M486,104.54a2.51,2.51,0,0,1,2.36.66l-3.3,2.16c-7.69,5-16.79,6-25.19,8.93a71.58,71.58,0,0,0-22.8,13.13c3.22,0,5.53,0,7.77.83,1.92.72,5.26.39,5.33,2.51.1,2.68-3.38,2-5.23,2.53-7.18,2.15-10.15,5-9.07,11.33a11.34,11.34,0,0,1-2.23,9.44,2.2,2.2,0,0,1,.05.57c-2.43-4.75-3-10.09-4.65-15.09-1.75-5.2-3.23-10.48-6.19-15.15-1.32-2.08-1-2.92,1.27-4,15.1-7.22,30.81-12.24,47.54-13.85a41.09,41.09,0,0,0,13-3Z"
      transform="translate(-31.97 -17.46)" style="fill:#ea8895" />
    <path
      d="M179.75,391.2c-3.8-3.5-2.1-7.89-1.94-12,0-1.05.52-2.14,1.6-2.23,1.44-.13,1.18,1.22,1.35,2.15a13.44,13.44,0,0,0,.67,2.9c.59,1.42-.61,3.83,1.64,4.23,2,.35,3.47-1.48,4.19-3.05a55,55,0,0,0,5.17-23.57c-.08-6.46-4-10.72-10.57-12.09.87-10.32.87-10.34,10.83-8,2.75.63,6.18.62,8,2.3,2,1.86-1.12,4.54-1.32,7.11-.84,10.83-.23,21.65-.29,32.47,0,3.83-.12,7.66-.1,11.49,0,2.07-.25,3-2.83,2.27C190.77,393.6,185.24,392.49,179.75,391.2Z"
      transform="translate(-31.97 -17.46)" style="fill:#cfcfd1" />
    <path
      d="M170.83,459.45c.61.65.36,2,1.68,2.06-.52,4.13,2.33,7.08,4,10.83-4.08.85-7.36-.93-10.52-2.21-16.69-6.74-31.77-15.75-42-31.19a34.08,34.08,0,0,1-5.75-14.14c3.21-1.09,2.16-4.07,2.93-7.19C128.53,443.22,148.46,452.81,170.83,459.45Z"
      transform="translate(-31.97 -17.46)" style="fill:#cfcfd1" />
    <path
      d="M372.73,79.23c.49-3.12,2.91-2.78,5-2.65,7.45.45,12.48-2.27,15.39-9.61,3.66-9.21,6-18.51,5.64-28.47-.09-2.19-.83-4.83,2.18-6,5.77,11,4.63,22.55,2.71,34.07a67.05,67.05,0,0,1-7,20.19c-1.7,3.25-3.54,4.61-6.9,2.46C384.19,85.71,377.83,83.54,372.73,79.23Z"
      transform="translate(-31.97 -17.46)" style="fill:#efac20" />
    <path
      d="M444.86,157.14c22.1.32,38.33-10.12,50.7-27.65,3.91,1.14,5.05,2.59,2.24,6.61-10.59,15.2-24.52,25.13-42.79,28.81-5.28,1.06-10.58.76-15.82.39s-4.69-5.09-5.47-8.67a2.2,2.2,0,0,0-.05-.57C437.38,156.62,441,157.64,444.86,157.14Z"
      transform="translate(-31.97 -17.46)" style="fill:#343a55" />
    <path
      d="M377.81,348.47c.66,1.83,1.33,3.66,2,5.5-1.45,13.65-.36,26.62,10,37.09-5.83,1.72-12.08,1.24-18.36,4.34,0-13.83-.08-26.74.05-39.65a27.58,27.58,0,0,0-2.81-13.45c-.41-.79-1.65-2-.63-2.52a20.94,20.94,0,0,1,6.56-2c1.85-.24,1,1.63,1.22,2.59C376.4,343.07,376.22,346,377.81,348.47Z"
      transform="translate(-31.97 -17.46)" style="fill:#cfcfd1" />
    <path
      d="M157.7,37.56c1.56,1.29.84,3.07,1,4.66,1.16,11.49,5.14,21.8,12.77,30.6,1.76,2,3.78,3.17,6.52,2.75,3.53-.54,6.88.82,10.33,1-5.41,5.36-12.13,8.66-18.87,11.88a18.19,18.19,0,0,0-3.81,2.27c-5.5.74-5.67-3.9-7.22-7.14,4,1.47,5.32-.56,3.8-3.74-2.41-5.07-3.63-10.51-5.74-15.65C154.91,55.24,155.78,46.37,157.7,37.56Z"
      transform="translate(-31.97 -17.46)" style="fill:#efac20" />
    <path
      d="M360.39,68.3c.88,2.43,3.94,3.26,4.39,6,0,3.17-1,3.68-3.93,2-9.75-5.62-19.36-11.45-30.29-14.79-13.21-4-26.77-5.84-40.41-7.32q1.29-3.3,2.57-6.6c17.86.66,34.59,5.72,50.83,12.81,4.2,1.84,8.13,4.68,13.1,4.15Z"
      transform="translate(-31.97 -17.46)" style="fill:#454383" />
    <path
      d="M470.44,438.65c-2.3-3.49-.91-5.42,2.54-7,14.07-6.56,23.45-17.12,26.62-32.56.62-3,2.16-2.56,4.24-2.41,9.14.62,8.81.48,6.16,9.48-1.52,5.15-4,9.74-6.24,14.5-1.58-2.17-2.81-.68-4,.42-2.2,2-4.17,4.18-6.68,5.87A99.71,99.71,0,0,1,470.44,438.65Z"
      transform="translate(-31.97 -17.46)" style="fill:#fcfcfc" />
    <path
      d="M357.93,344.38c-5-3.85-10.83-4.19-16.91-4.17-38.8.13-77.6.08-116.4.13-8.3,0-13.24,4.73-14.25,12.91-.34,2.74.43,5.94-2.27,8.07,0-2.49-.1-5,0-7.47.29-9.89,6.52-16.05,16.42-16.06q60.33-.06,120.64,0C350.27,337.84,355.83,338,357.93,344.38Z"
      transform="translate(-31.97 -17.46)" style="fill:#cfcfd1" />
    <path
      d="M344.94,468.49c0,3.65-.14,7.31-.05,11,.06,2.58-.58,4.11-3.6,4-4.83-.18-9.66-.13-14.49-.11-2.39,0-3.81-.82-3.76-3.46.08-4.32.1-8.65.11-13,0-2.79,1.54-3.8,4.13-3.79,5.15,0,10.3,0,15.45,0C344.67,464.4,344.69,466.49,344.94,468.49Z"
      transform="translate(-31.97 -17.46)" style="fill:#fdce3f" />
    <path
      d="M493.6,93.62c-.53,2.86-2.83,1.79-4.42,1.83-9,.27-17.87-1.19-26.88-1a198.69,198.69,0,0,0-41.9,4.68c-3.26.76-6.59,1-9.76-.6-.47-2.94,1.93-3.18,3.72-3.67,9.13-2.5,18.51-3.47,27.91-4.42a158.4,158.4,0,0,1,40.64,1.1C486.5,92.06,490,92.91,493.6,93.62Z"
      transform="translate(-31.97 -17.46)" style="fill:#454383" />
    <path
      d="M345.81,407.52c-3.64,5.16-7.8,10-10.19,15.94-12.7-.72-12.7-.72-12.71-13.63,0-.83,0-1.67,0-2.49-.15-2.74,1.09-3.92,3.86-3.85,4.49.12,9,.27,13.46,0C343.45,403.26,345.26,404.34,345.81,407.52Z"
      transform="translate(-31.97 -17.46)" style="fill:#efac20" />
    <path
      d="M112.89,465.49c-19.74-1-30.82,9.51-29,33-1.71-.17-2.1,1.56-3.22,2.24-2.61-9.13-3.26-18.22.9-27.09,5.42-11.55,15.32-15.29,27.25-15.4C110,460.74,112.71,462.4,112.89,465.49Z"
      transform="translate(-31.97 -17.46)" style="fill:#756ac3" />
    <path
      d="M224.54,408.61c-.23-4,1.58-5.58,5.67-5.29a111.21,111.21,0,0,0,12.91,0c3.65-.15,4.92,1.83,4.38,4.92a43.14,43.14,0,0,0-.49,9.88c.18,3.41-1,4.87-4.53,4.59a74.88,74.88,0,0,0-7.92.16l-1-.28a4.28,4.28,0,0,0-2.41-4.38C230.41,414,226,412.35,224.54,408.61Z"
      transform="translate(-31.97 -17.46)" style="fill:#756ac3" />
    <path
      d="M486.73,508.55c2.6-6.62,1.7-13.44.86-20.18-1.45-11.69-7.6-19.64-19.24-22.86q-.37-3.08-.76-6.15c19.43.35,26.16,17.07,24.62,32.7C491.64,497.83,491,503.87,486.73,508.55Z"
      transform="translate(-31.97 -17.46)" style="fill:#756ac3" />
    <path
      d="M107.64,106.07c.27-2.63,2.26-2.53,4.08-2.44,6.48.31,12.87,1.41,18.64,4.41,3.58,1.87,6.24,1.44,8.82-1.37.67-.73,1.4-1.41,2.12-2.09,1.8-1.68,3.6-4.43,6.09-3.61,2.66.88.68,4.15,1.43,6.22a38.86,38.86,0,0,0-7.9,9.53c-1.24,1.92-2.25,2.18-4.36,1A138.73,138.73,0,0,0,107.64,106.07Z"
      transform="translate(-31.97 -17.46)" style="fill:#cfcfd1" />
    <path
      d="M360.39,68.3l-3.74-3.75c1.43-2.14,3.82-3.1,5.76-4.62,7.8-6.1,14.36-13.22,18.65-22.26a56.3,56.3,0,0,1,3.3-6.12c3.91-6.08,8.42-6.55,14.41-1.61-8.36-.45-9.77.27-13.21,8.08-3.79,8.6-8.75,16.35-15.68,22.74-2.28,2.1-4.38,4.6-7.84,4.89C360.4,65.79,360.66,67.24,360.39,68.3Z"
      transform="translate(-31.97 -17.46)" style="fill:#fcfcfc" />
    <path
      d="M232.41,449c2.93-3.4,2.8-7.73,3.1-11.73.22-3.05,1.08-4.2,4.07-3.9a39.57,39.57,0,0,0,5,0c2.35-.07,3.23,1.07,3.18,3.35-.1,4.33-.07,8.65-.07,13,0,2.46-1.11,3.77-3.64,3.57-4.14-.32-8.64.86-12-2.77Z"
      transform="translate(-31.97 -17.46)" style="fill:#9d8ef7" />
    <path
      d="M335.52,437.44q1.44,6.4,2.89,12.82c-2.77,3.63-6.73,1.71-10.17,2.19-3.93.56-5.17-1.24-5.25-5.05-.26-12.42-.37-12.41,11.71-13.2.18.8.37,1.61.55,2.41-.05.1-.18.25-.15.3A4.25,4.25,0,0,0,335.52,437.44Z"
      transform="translate(-31.97 -17.46)" style="fill:#ea8895" />
    <path
      d="M470.44,438.65a99.71,99.71,0,0,0,22.61-11.73c2.51-1.69,4.48-3.89,6.68-5.87,1.22-1.1,2.45-2.59,4-.42C497,433.47,485.31,440.56,473,447.32A31.4,31.4,0,0,1,470.44,438.65Z"
      transform="translate(-31.97 -17.46)" style="fill:#cfcfd1" />
    <path
      d="M63.87,137.46c4.22,1.47,6.69,5.21,10,7.82a56.27,56.27,0,0,0,27.22,11.24c1.63.23,3.22.72,4.83,1.1-.28,2.9-3.24,4.11-4.16,6.6C84.92,161.28,72.58,152,63.87,137.46Z"
      transform="translate(-31.97 -17.46)" style="fill:#cfcfd1" />
    <path
      d="M156.71,339.47c-5.76,5.21-9.25,12-13,18.61-5.44,9.47-10.57,19.11-14,29.54a3.93,3.93,0,0,1-4,.53c-.22-6.28,3.15-11.49,5.77-16.67,5.66-11.19,11.31-22.47,20-31.8C153.45,337.62,154.82,336.23,156.71,339.47Z"
      transform="translate(-31.97 -17.46)" style="fill:#454383" />
    <path
      d="M358.64,399.38c.06-12.56.22-25.12.11-37.67,0-4.68.54-9.09,2.92-13.16,1.55,1,1.05,2.65,1.06,4.07,0,13.57-.05,27.13,0,40.69C362.69,396.28,362.63,399.11,358.64,399.38Z"
      transform="translate(-31.97 -17.46)" style="fill:#454383" />
    <path
      d="M224.59,437.32c-1.58-.05-1.74-1.13-1.84-2.38-1-12-8.32-18.7-19-22.65-1.88-.69-4.42-.6-5.11-3.27.79-1.44,4-.66,3.24-3.56,4.85,3,10.33,5,14.63,9C223.18,420.82,227.33,427.78,224.59,437.32Z"
      transform="translate(-31.97 -17.46)" style="fill:#454383" />
    <path
      d="M101.78,164.22c.92-2.49,3.88-3.7,4.16-6.6l17.64-1a3.82,3.82,0,0,1-.08,1c-2.48,7.64-5.39,9.58-13.67,8.42C107.14,165.66,104.13,166.23,101.78,164.22Z"
      transform="translate(-31.97 -17.46)" style="fill:#756ac3" />
    <path
      d="M334.7,434.2c-12.08.79-12,.78-11.71,13.2.08,3.81,1.32,5.61,5.25,5.05,3.44-.48,7.4,1.44,10.17-2.19,2.43,1.4.44,4.51,2.36,6.1-4.15,0-8.32.19-12.46,0-5.59-.27-7.4-2.22-7.54-7.73-.08-3.49,0-7,0-10.47.05-5.58,1.86-7.45,7.38-7.68,2.16-.08,4.32-.06,6.48-.08C334.64,431.66,334.67,432.93,334.7,434.2Z"
      transform="translate(-31.97 -17.46)" style="fill:#454383" />
    <path
      d="M371.76,409.42c-3.5,1.5-7.27,2.13-10.75,3.81-8.9,4.29-13.79,11.08-14.37,21a16.36,16.36,0,0,1-.94,3.32c-3.58-5.15-2.4-10.33.26-15.28,4.32-8.08,10.59-13.72,20.15-14.72A5.79,5.79,0,0,1,371.76,409.42Z"
      transform="translate(-31.97 -17.46)" style="fill:#454383" />
    <path
      d="M466.69,449.07a65.06,65.06,0,0,0-16.3.18c4.56-6.14,8-11.91,9.93-19.52C463.73,436.25,464.85,442.5,466.69,449.07Z"
      transform="translate(-31.97 -17.46)" style="fill:#cfcfd1" />
    <path
      d="M345.81,407.52c-.55-3.18-2.36-4.26-5.61-4-4.47.29-9,.14-13.46,0-2.77-.07-4,1.11-3.86,3.85.05.82,0,1.66,0,2.49,0,12.91,0,12.91,12.71,13.63-.07.75-.14,1.5-.22,2.25-16.18-.21-14.65,1.6-14.69-15.27,0-1.16,0-2.32,0-3.48.06-4.19,2-6.49,6.38-6.49s8.95,0,13.42,0c4.06,0,6.62,1.76,7.21,5.94A2,2,0,0,1,345.81,407.52Z"
      transform="translate(-31.97 -17.46)" style="fill:#454383" />
    <path
      d="M156.48,64.21c2.11,5.14,3.33,10.58,5.74,15.65,1.52,3.18.16,5.21-3.8,3.74-5.65-12.44-7.82-25.38-5.64-39,.06,4.47-.13,9,.28,13.4C153.28,60.36,152.64,63.68,156.48,64.21Z"
      transform="translate(-31.97 -17.46)" style="fill:#fdce3f" />
    <path
      d="M467.59,459.36q.39,3.08.76,6.15a28,28,0,0,0-18.57,4.86c-2-2.34.74-3,1.66-4,1.71-1.93,3.73-3.57,3.6-6.48.81-.93,3-.27,2.75-2.41Z"
      transform="translate(-31.97 -17.46)" style="fill:#454383" />
    <path
      d="M156.48,64.21c-3.84-.53-3.2-3.85-3.42-6.17-.41-4.44-.22-8.93-.28-13.4A28.9,28.9,0,0,1,155,34.44c1.95-.2,1.95-2.28,3.12-3.24,1.52,2.24-1,4.19-.45,6.36C155.78,46.37,154.91,55.24,156.48,64.21Z"
      transform="translate(-31.97 -17.46)" style="fill:#fde9a1" />
    <path
      d="M511.8,304.41c-4.19,8.63-9.05,16.81-16,23.53-1.17,1.12-2.13,2.61-4.05,2.53,4.43-9.43,12-16.73,17.26-25.63C509.54,303.87,510.64,303.11,511.8,304.41Z"
      transform="translate(-31.97 -17.46)" style="fill:#454383" />
    <path
      d="M112.89,465.49c-.18-3.09-2.89-4.75-4.12-7.24.72-1.11,1.8-.93,2.86-.8,1.59,2.72,5.15,1.92,7.11,4-.38,1.85,1.08.64,1.62,1a1.08,1.08,0,0,1,1.43.54c.19,1.22,1,1.51,2.1,1.46v-.09c.27,4-.79,5.85-5,3.37C117,466.62,114.88,466.2,112.89,465.49Z"
      transform="translate(-31.97 -17.46)" style="fill:#454383" />
    <path
      d="M489.69,333.5c-5.24,1.62-6.26,6.4-7.95,10.66-.27.71-.08,2-1.17,1.72s-.72-1.61-1-2.49c-.1-6,2.83-10.79,6-15.8C487.5,329.58,486.29,333.16,489.69,333.5Z"
      transform="translate(-31.97 -17.46)" style="fill:#454383" />
    <path
      d="M80.62,500.74c1.12-.68,1.51-2.41,3.22-2.24,1.46,4.3,2.86,8.62,4.42,12.89.69,1.89.36,3.17-1.49,4C84.33,510.67,81.37,506.17,80.62,500.74Z"
      transform="translate(-31.97 -17.46)" style="fill:#454383" />
    <path
      d="M533.51,351.18c-2.39-6-4.39-12.11-4.63-18.64.43-.92-.79-2.86.87-2.75s1.54,2.2,1.75,3.63c-1.84,2.07.26,3.46.89,5.1C533.11,342.71,534.18,346.87,533.51,351.18Z"
      transform="translate(-31.97 -17.46)" style="fill:#756ac3" />
    <path
      d="M527.49,332.58c-.12.76,0,1.95-.43,2.21-.95.59-1.34-.49-1.6-1.19-1.24-3.33-2.59-6.65-1.7-10.33C527,325.58,525.63,329.72,527.49,332.58Z"
      transform="translate(-31.97 -17.46)" style="fill:#756ac3" />
    <path d="M167.62,29.12l-9.4.46C163.05,25.6,165.63,25.48,167.62,29.12Z" transform="translate(-31.97 -17.46)"
      style="fill:#cfcfd1" />
    <path d="M532.39,338.52c-.63-1.64-2.73-3-.89-5.1C533.33,334.85,536.06,336.13,532.39,338.52Z"
      transform="translate(-31.97 -17.46)" style="fill:#343a55" />
    <path d="M231.15,418.21a4.28,4.28,0,0,1,2.41,4.38C231.33,421.91,231,420.22,231.15,418.21Z"
      transform="translate(-31.97 -17.46)" style="fill:#454383" />
    <path d="M169.74,31.42a5.09,5.09,0,0,1-2.33-2.75c2.79-1.16,3.43,1.15,4.5,2.77Z" transform="translate(-31.97 -17.46)"
      style="fill:#cfcfd1" />
    <path d="M158.15,31.2c-1.17,1-1.17,3-3.12,3.24A9.06,9.06,0,0,1,157.79,30Z" transform="translate(-31.97 -17.46)"
      style="fill:#cfcfd1" />
    <path d="M335.52,437.44a4.25,4.25,0,0,1-.42-.53c0-.05.1-.2.15-.3A.62.62,0,0,1,335.52,437.44Z"
      transform="translate(-31.97 -17.46)" style="fill:#454383" />
    <path d="M177.19,472.67l.26.29c-.11.08-.23.21-.33.2s-.18-.18-.26-.27Z" transform="translate(-31.97 -17.46)"
      style="fill:#cfcfd1" />
    <path d="M122.81,153.44l1.41-.21c-.16.46-.33.92-.5,1.38Z" transform="translate(-31.97 -17.46)"
      style="fill:#fcb9c2" />
    <path d="M408.16,87.33l-1.28,0c.19-.36.39-.72.58-1.09C407.69,86.63,407.93,87,408.16,87.33Z"
      transform="translate(-31.97 -17.46)" style="fill:#fdfdfd" />
    <path
      d="M222.8,197.61a35.31,35.31,0,0,1-6,20.1c-7.32,10.79-21.49,11.51-29.8,1.52-9.89-11.88-9.37-36,1-47.45,8.73-9.58,22.24-8.6,29.38,2.19C221.73,180.47,222.76,187.83,222.8,197.61Zm-14.2-14.86c.11-4.6-3.21-8.64-7.1-8.65s-6.83,3.26-7,8c-.15,4.47,2.79,8.56,6.31,8.78C204.5,191.14,208.5,186.94,208.6,182.75Z"
      transform="translate(-31.97 -17.46)" style="fill:#1e203e" />
    <path
      d="M334.52,195.55c0-8.63,1.26-16.9,7.13-23.79,7.16-8.41,19.08-8.71,26.71-.67,11.19,11.78,11.6,36.69.81,48.92a18,18,0,0,1-27.25-.22C336,212.78,334.35,204.44,334.52,195.55Zm25.57-12.3c0-5.05-2.94-9-6.67-9-3.89-.08-7.18,4-7,8.67.14,4.26,3.66,8.39,7.08,8.3C357.14,191.08,360.14,187.49,360.09,183.25Z"
      transform="translate(-31.97 -17.46)" style="fill:#1e203e" />
    <path
      d="M164.43,258.49c-5,.34-10-1.19-14.64-3.24-6.31-2.78-10.68-7.78-10.81-14.86s4.74-12,10.62-15.11c11.73-6.14,28.59-4.07,38.09,5.05,7.71,7.42,7.25,18.91-5.09,24.58A38.72,38.72,0,0,1,164.43,258.49Z"
      transform="translate(-31.97 -17.46)" style="fill:#fcb9c2" />
    <path
      d="M392.36,222.44a25.91,25.91,0,0,1,18.29,5.66c10,7.67,9.32,19.9-1.85,25.53-9.87,5-20.39,6.73-31.33,3a22.74,22.74,0,0,1-10.76-7.74c-4.67-6-2.88-15.36,3.73-20.24C376.29,224.32,382.74,222.42,392.36,222.44Z"
      transform="translate(-31.97 -17.46)" style="fill:#fcb9c2" />
    <path
      d="M342.46,126.57c12-4.37,22.57-2.85,31.19,7.23-2.22,1.8.46,3.16.49,4.78,0,1.29.91,2.86-.33,3.7-1.47,1-2.36-.76-3.14-1.6-4.38-4.65-9.45-7.79-16-8.36a32.06,32.06,0,0,0-8.41.73c-2.16.39-4.85,1.89-6.43-.65C338.15,129.64,341.59,128.54,342.46,126.57Z"
      transform="translate(-31.97 -17.46)" style="fill:#1e203e" />
    <path
      d="M202.69,125.24A16.9,16.9,0,0,1,213.63,128c1.45,1,2.38,2.39,1.56,4.27s-2.37,1.64-3.85,1.27c-11.34-2.78-20.64.57-28.26,9.2-.6.68-1.15,1.89-2.33,1.17-1.37-.84-1.32-2.21-.76-3.55,2.74-6.71,7.7-11.13,14.37-13.73A20.93,20.93,0,0,1,202.69,125.24Z"
      transform="translate(-31.97 -17.46)" style="fill:#1e203e" />
    <path
      d="M319.2,287.75a5.27,5.27,0,0,1,4.34.31,11.18,11.18,0,0,0,10.63.95,11.66,11.66,0,0,1-8,4.89c-3.44.46-5.58,2.15-7.65,4.75-7.83,9.84-17.05,17.68-30.08,19.59-1.15.16-2.32.17-3.47.25.27-.88.53-1.77.8-2.65a30.27,30.27,0,0,0,9.16-3.52c1.13-.64,2.4-1.61,2-3.08s-1.88-1.2-3-1.11c-12.47,1-24.87-.42-37.3-.82-.44-.59-1.12-.85-1.42-.13-.42,1,.48,1.22,1.27,1.31l4.85,4.26L259.24,315c-5.8-1.64-9.94-5.53-14-9.74-4.71-4.86-8.52-11.05-16.43-11.69-1.55-.13-3.9-1.1-4-4.57,5.17,2.78,9.15-1.57,13.89-1.46-.13,4.5,3.19,6.27,6.46,7.94C260.06,303,276,302.27,292,301.09a49.35,49.35,0,0,0,22.53-7.31C316.87,292.33,318.82,290.68,319.2,287.75Z"
      transform="translate(-31.97 -17.46)" style="fill:#1e203e" />
    <path
      d="M216.13,253.76c-.35-5.34,3.07-8.71,6-12.1,9.38-10.71,21.47-16.43,35.41-18.57,18.45-2.83,36.77-3,54.55,3.52,10.45,3.8,19.91,9.28,26.25,18.94a30,30,0,0,1,1.73,3,4,4,0,0,1,.14,1.37c-.46,0-.94.2-1,.08-10.85-15-27.7-18-44-21.21s-32.77-1.76-48.69,3.33C234.19,236.07,222.4,241,216.13,253.76Z"
      transform="translate(-31.97 -17.46)" style="fill:#fcfcfc" />
    <path
      d="M319.2,287.75c-.38,2.93-2.33,4.58-4.7,6A49.35,49.35,0,0,1,292,301.09c-16,1.18-31.91,1.93-46.82-5.64-3.27-1.67-6.59-3.44-6.46-7.94,5.42.22,9.67,4.17,15.08,4.6,7.06.56,14,2,21.22,1,4-.57,8.21.15,12.31.44,8.83.63,17.08-1.69,25.13-4.92A11.11,11.11,0,0,1,319.2,287.75Z"
      transform="translate(-31.97 -17.46)" style="fill:#ea8895" />
    <path
      d="M309.25,245.2a8.86,8.86,0,0,1,8.6,9.09,11.81,11.81,0,0,1-11.51,11.39c-4.69-.05-7.55-3.11-7.47-8C299,251.12,304,245.07,309.25,245.2Z"
      transform="translate(-31.97 -17.46)" style="fill:#1e203e" />
    <path
      d="M249.88,265.7c-6-.25-11.36-5.77-11.1-11.34.24-5.1,4.19-9.08,8.89-9,5.64.16,10.5,6.86,10.09,13.92C257.52,263.44,254.48,265.9,249.88,265.7Z"
      transform="translate(-31.97 -17.46)" style="fill:#1e203e" />
    <path
      d="M259.24,315l2.11-2.22c7.81,3.56,16,4.18,24.39,3.09-.27.88-.53,1.77-.8,2.65-7.65,1.24-15.14,1.05-22.32-2.28l-.53-.9-.61.56Z"
      transform="translate(-31.97 -17.46)" style="fill:#343a55" />
    <path d="M261.48,315.87l.61-.56.53.9Z" transform="translate(-31.97 -17.46)" style="fill:#1e203e" />
    <path
      d="M323.79,487.17a1.22,1.22,0,0,0,.91-.16c5.13.07,10.26.2,15.38.21,2.35,0,4.32.34,4.87,3.08q-.22,11.51-.46,23a6,6,0,0,1-4.87,1.91c-4-.1-8-.18-11.93-.06-3.64.11-5-1.43-4.91-5.06.2-7.12.11-14.24.14-21.37Z"
      transform="translate(-31.97 -17.46)" style="fill:#fdce3f" />
    <path
      d="M349.63,384.63a.64.64,0,0,0,0,.64l-.92,3.17,0,0q-1.1-.07-1,1l0,0c-2.68.53-5.3,1.55-8.11.81l.09-2.68c3.14-.52,6.43-.65,6.3-5.29-.18-6.81-.08-13.62-.11-20.44,0-3.84-2.1-6-5.83-6-7.79-.06-15.6-.58-23.38.31-19.95-.29-39.9-.64-59.85.05l-2.13-.17h-1.86c-7.63-.08-15.25-.2-22.87-.2a4.86,4.86,0,0,0-5.12,3.71.76.76,0,0,1-.6.14c-1.81.17-1.29,3-3.29,2.92-.39-7.28,2.14-10.14,9.31-10.15q55.41-.06,110.82,0c5.91,0,8.31,2.87,8.73,10.12Q349.72,373.59,349.63,384.63Z"
      transform="translate(-31.97 -17.46)" style="fill:#454383" />
    <path
      d="M339.67,387.55l-.09,2.68-25.85.5-78,0-12-.36.06.05c.32-1-.24-1.16-1.05-1l0,.06c.16-.84-.37-1.23-1-1.54.05-.5.11-1,.17-1.49,1.26-1.46.11-1.76-1-2.07q0-10.9,0-21.8c2,0,1.49-2.75,3.3-2.92.28,8.25-.64,16.54.64,24.76-.2,2.6,1.36,2.9,3.46,2.88,5.83-.06,11.66,0,17.48,0Z"
      transform="translate(-31.97 -17.46)" style="fill:#343a55" />
    <path
      d="M282.82,504.7c0,13.7,0,13.7-13.87,13.72-12.89,0-13.1-.32-13.21-13-.13-14.2,0-14.11,14-14C282.83,491.52,282.83,491.44,282.82,504.7Zm-22.39-10.44a.79.79,0,0,0-.5.26c-2.43,5.72-.92,11.68-1,17.53,0,1.45,1.58,1.47,2.74,1.55,3.81.27,7.61.64,11.43.73,6.79.16,7.49-.69,7-7.3-.19-2.48.06-5-.2-7.48-.21-2,1.16-4.41-1.44-5.8l-3.37.12C270.18,493.4,265.27,492.75,260.43,494.26Z"
      transform="translate(-31.97 -17.46)" style="fill:#454383" />
    <path
      d="M270,400.61c15.26-.45,12.59,1.31,12.73,12.81,0,1.16,0,2.33,0,3.5,0,7.92-.6,8.42-8.5,8.63-3.47.09-6.94.71-10.41.75-6.06.06-7.9-1.93-8-8.16,0-3.17,0-6.33,0-9.5.08-6.09,2-8,8.13-8C266,400.58,268,400.6,270,400.61Zm-11.1,4.53c-.1,1.32-.27,2.63-.28,3.95-.08,13.56-.07,13.56,13.67,13.58,7.72,0,8,0,7.64-7.83-.16-3.74,1.94-7.9-1.43-11.27-5.45,0-10.91-.05-16.37-.1C260.71,403.46,259.42,403.56,258.87,405.14Z"
      transform="translate(-31.97 -17.46)" style="fill:#454383" />
    <path
      d="M235.58,491.44c15-.28,15.41-.26,15.08,13.56,0,1.65.09,3.32,0,5-.4,5.86-2.21,7.48-8,7.66-3.79.12-7.57.71-11.36.73-5.83,0-8.52-2.74-8.56-8.42,0-3.82,0-7.63,0-11.44.07-5.14,1.76-6.85,6.8-7.05h6.07Zm-9.86,4q0,7.2-.1,14.4c0,1.68-.09,3.49,2.27,3.65,4.93.34,9.87.79,14.8.85,2.32,0,5-.68,4.94-3.72-.07-5.08.93-10.21-.64-15.22-.28-1-.74-1.88-1.94-1.88-5.75,0-11.5,0-17.26.09A2.24,2.24,0,0,0,225.72,495.47Z"
      transform="translate(-31.97 -17.46)" style="fill:#454383" />
    <path
      d="M301.5,425.55c-13.68,0-13.68,0-13.67-13.51,0-1.83-.05-3.66,0-5.48.14-3.74,2.06-5.87,5.86-5.94,4.64-.09,9.29-.12,13.93,0,4.19.1,6.92,3,7,7.31.1,3.81-.08,7.63.07,11.44.17,4.47-1.87,6.43-6.28,6.21C306.15,425.46,303.82,425.55,301.5,425.55Zm-.2-22.06h-3c-7.62,0-7.62,0-7.62,7.36,0,11.72,0,11.77,12.23,11.65,10-.09,8.81,1.4,8.93-8.57C312,403.5,311.94,403.5,301.3,403.49Z"
      transform="translate(-31.97 -17.46)" style="fill:#454383" />
    <path
      d="M282.79,474.18c0,12.24,0,12.24-12.31,12.23-14.69,0-14.69,0-14.66-14.48v-2.5c.05-6.86,1.12-8.07,7.92-8.77,5.17-.54,10.26.48,15.36,1,2.5.25,3.68,2.06,3.68,4.56Q282.8,470.19,282.79,474.18Zm-4.2-10.71c-6.27.26-12.63-1.27-18.81.86-2.45,5.27-.41,10.85-1.13,16.24,0,1.4.18,2.84,2,2.86q8.64.13,17.3,0a2.64,2.64,0,0,0,2.74-2.9c-.14-5.08.68-10.19-.56-15.22C280,464.42,279.8,463.51,278.59,463.47Z"
      transform="translate(-31.97 -17.46)" style="fill:#454383" />
    <path
      d="M301.38,456.38c-13.51,0-13.59-.12-13.59-13.57,0-.5,0-1,0-1.5,0-9.72.13-10,9.68-9.77,4.27.11,8.4-1.7,12.8-.24,3,1,4.48,2.52,4.45,5.62,0,4,0,8,0,12-.06,5.8-1.66,7.41-7.35,7.49C305.36,456.4,303.37,456.38,301.38,456.38Zm.19-3.06c10.78,0,10.85,0,10.84-7.91,0-14.16,1.94-12.25-12.44-12.27-11,0-9.29-.65-9.35,9.3C290.54,454.23,289,453.25,301.57,453.32Z"
      transform="translate(-31.97 -17.46)" style="fill:#454383" />
    <path
      d="M310.71,462.44c2.72-.15,4,1.16,4,3.87,0,4.82,0,9.64,0,14.47,0,3.82-2.68,5.32-5.86,5.5-5.14.29-10.31.16-15.46.08-3.81-.06-5.25-2.76-5.43-5.95-.26-4.64-.11-9.31,0-14,0-2.17,1-4.29,3.24-4.45,6.54-.47,13.13-1.4,19.63.49-1.42,0-2.93-.55-4.15.67l-13.71.36c-.85,0-1.92,0-1.95,1-.13,5.6-.22,11.2-.11,16.81,0,2,1.87,2,3.37,2,4.78-.05,9.55-.11,14.32-.57,3-.28,3.62-1.7,3.56-4.15,1.18-3.37.61-6.79.37-10.21-.38-1.7.51-3.91-1.89-4.82l.15-.09Z"
      transform="translate(-31.97 -17.46)" style="fill:#454383" />
    <path
      d="M312.68,494.49c.46.14,1.3.22,1.33.44,1.15,6.69,1.49,13.4-.14,20.05-.51,2.07-2.34,2.59-4.34,2.59q-8,0-15.93,0c-3,0-4.56-1.52-5.16-4.34-1.25-5.91-.67-11.89-.64-17.84,0-2.35,2.39-3.57,4.12-3.66,5.95-.32,11.93-.19,17.89,0,1.37,0,3,.69,2.89,2.75l-1.95-.08,0,0c-5.94-2.24-12.07-.62-18.1-.86l-1,.74c-1.82,6-.71,12.22-1.1,18.32,2.72,3.63,18.37,3.92,21.17.39.09-.12.07-.32.1-.48C313.43,506.6,311.71,500.48,312.68,494.49Z"
      transform="translate(-31.97 -17.46)" style="fill:#454383" />
    <path
      d="M280.72,433.45c2.56,2.39,3,18.54.64,20.86a6.11,6.11,0,0,1-3.16,1.3c-5.58,1.27-11.22.93-16.82.44-3.66-.31-5.56-2.61-5.54-6.39,0-4.15,0-8.3,0-12.45,0-3.11,1.71-5.39,4.6-5.56,6.12-.36,12.28-.12,18.42-.08,1.17,0,1.75.78,1.88,1.91l-1.06,0-1.2,0-2.58-.28a29.05,29.05,0,0,0-14.35.05c-1,.26-2.19-.08-2.84,1.07-1.5,5.07-1.16,10.16-.2,15.26l.94,2.34c.44.45.87,1.28,1.32,1.29q8.79.19,17.58.14c.87,0,1.32-.84,1.51-1.69.07-.35.15-.7.22-1C281.47,444.92,280.34,439.16,280.72,433.45Z"
      transform="translate(-31.97 -17.46)" style="fill:#454383" />
    <path d="M235.75,390.76l78,0v1.51c-26,.75-52,.43-78,0C235.74,391.77,235.74,391.26,235.75,390.76Z"
      transform="translate(-31.97 -17.46)" style="fill:#d1f2f6" />
    <path
      d="M322.92,488.72c0,7.13.06,14.25-.14,21.37-.11,3.63,1.27,5.17,4.91,5.06,4-.12,7.95,0,11.93.06a6,6,0,0,0,4.87-1.91,2.41,2.41,0,0,1,1.22,2.16c-3.47,3.37-7.85,2-11.83,2-15.24.16-13,2.07-13.14-13.05-.05-3.65,0-7.31.06-11C320.83,491.6,321.07,489.79,322.92,488.72Z"
      transform="translate(-31.97 -17.46)" style="fill:#343a55" />
    <path
      d="M345.71,515.46a2.41,2.41,0,0,0-1.22-2.16q.22-11.49.46-23a2.94,2.94,0,0,1,2.66,3.07q0,9.67,0,19.36A3.08,3.08,0,0,1,345.71,515.46Z"
      transform="translate(-31.97 -17.46)" style="fill:#454383" />
    <path
      d="M313.73,392.24v-1.51l25.85-.5c2.81.74,5.43-.28,8.11-.81-.73,3.1-3.54,2.81-5.57,2.85C332.66,392.44,323.19,392.28,313.73,392.24Z"
      transform="translate(-31.97 -17.46)" style="fill:#cfcfd1" />
    <path d="M349.63,384.63q.08-11,.16-22.1C352.68,365.61,352.56,382,349.63,384.63Z"
      transform="translate(-31.97 -17.46)" style="fill:#9d8ef7" />
    <path d="M235.75,390.76c0,.5,0,1,0,1.51-4.09,0-8.42,1.46-12-1.87Z" transform="translate(-31.97 -17.46)"
      style="fill:#cfcfd1" />
    <path d="M348.67,388.44l.92-3.17C351.37,386.94,351.08,388,348.67,388.44Z" transform="translate(-31.97 -17.46)"
      style="fill:#cfcfd1" />
    <path d="M221,384.37c1.11.31,2.26.61,1,2.07C220.92,386.09,220.77,385.31,221,384.37Z"
      transform="translate(-31.97 -17.46)" style="fill:#454383" />
    <path d="M347.67,389.44q-.07-1.1,1-1Q348.77,389.52,347.67,389.44Z" transform="translate(-31.97 -17.46)"
      style="fill:#cfcfd1" />
    <path d="M222.76,389.41c.81-.12,1.37,0,1.05,1Z" transform="translate(-31.97 -17.46)" style="fill:#cfcfd1" />
    <path d="M221.79,387.93c.64.31,1.17.7,1,1.54Z" transform="translate(-31.97 -17.46)" style="fill:#cfcfd1" />
    <path d="M437.55,386.84c.27-1.39-.06-3.06,1.58-3.83a1,1,0,0,1,1.46.78c.4,1.47,1.66,3.07-.58,4.17Z"
      transform="translate(-31.97 -17.46)" style="fill:#1e203e" />
    <path
      d="M226.63,464.16l2.14.09a42.4,42.4,0,0,0,16.86-.8c1.86.11,2,1.45,2,2.84q0,6.22,0,12.46c0,3.06-1.51,4.58-4.61,4.54-4.16,0-8.32-.14-12.46,0-3.42.14-4.89-1.14-4.65-4.64.33-4.77.42-9.55.61-14.32Z"
      transform="translate(-31.97 -17.46)" style="fill:#9d8ef7" />
    <path d="M245.63,463.45a42.4,42.4,0,0,1-16.86.8C234.32,462.45,240,463.55,245.63,463.45Z"
      transform="translate(-31.97 -17.46)" style="fill:#d1f2f6" />
    <path
      d="M514.43,362.64c-.12,0-.31.13-.33.09a1.21,1.21,0,0,1-.14-.39c.12,0,.32-.13.34-.09A1.28,1.28,0,0,1,514.43,362.64Z"
      transform="translate(-31.97 -17.46)" style="fill:#1e203e" />
    <path d="M123.89,464.39c-1.07.05-1.91-.24-2.1-1.46Z" transform="translate(-31.97 -17.46)" style="fill:#343a55" />
    <path d="M120.36,462.39c-.54-.33-2,.88-1.62-1Z" transform="translate(-31.97 -17.46)" style="fill:#343a55" />
    <path
      d="M444.86,157.14c-3.82.5-7.48-.52-11.19-1.08a11.34,11.34,0,0,0,2.23-9.44c-1.08-6.32,1.89-9.18,9.07-11.33,1.85-.56,5.33.15,5.23-2.53-.07-2.12-3.41-1.79-5.33-2.51-2.24-.85-4.55-.79-7.77-.83a71.58,71.58,0,0,1,22.8-13.13c8.4-3,17.5-4,25.19-8.93l3.3-2.16c2.65.48,3.35,1.8,2.89,4.6-2.58,15.44-11.46,26.6-23.85,35.25-5.71,4-11.93,7.24-18.94,8.53A4.16,4.16,0,0,0,444.86,157.14Z"
      transform="translate(-31.97 -17.46)" style="fill:#fcb9c2" />
    <path
      d="M208.6,182.75c-.1,4.19-4.1,8.39-7.79,8.15-3.52-.22-6.46-4.31-6.31-8.78.17-4.76,3-8,7-8S208.71,178.15,208.6,182.75Z"
      transform="translate(-31.97 -17.46)" style="fill:#fcfcfc" />
    <path
      d="M360.09,183.25c.05,4.24-2.95,7.83-6.61,7.93-3.42.09-6.94-4-7.08-8.3-.16-4.69,3.13-8.75,7-8.67C357.15,174.29,360,178.2,360.09,183.25Z"
      transform="translate(-31.97 -17.46)" style="fill:#fcfcfc" />
    <path
      d="M285.74,315.84c-8.4,1.09-16.58.47-24.39-3.09l-4.85-4.26.15-1.18c12.43.4,24.83,1.86,37.3.82,1.09-.09,2.62-.26,3,1.11s-.89,2.44-2,3.08A30.27,30.27,0,0,1,285.74,315.84Z"
      transform="translate(-31.97 -17.46)" style="fill:#ea8895" />
    <path d="M256.65,307.31l-.15,1.18c-.79-.09-1.69-.29-1.27-1.31C255.53,306.46,256.21,306.72,256.65,307.31Z"
      transform="translate(-31.97 -17.46)" style="fill:#343a55" />
    <path
      d="M339.67,387.55l-93.87-.23c-5.82,0-11.65-.09-17.48,0-2.1,0-3.66-.28-3.46-2.87a3.27,3.27,0,0,0,.84-3.24c-.95-5.62,1.87-10.6,2.68-15.92.4-2.61,1.7-4.75,4.82-4.78s6.24,0,9.36,0c-7.88,2.41-8.8,5.2-9.75,10.74a6.17,6.17,0,0,0,3.74,7c2.95,1.22,5.13-.4,6.4-3.14.74-1.58,3-2.15,2.9-4.25-2.26-1.05-4.49.59-6.93-.49,5-1.82,5.1-10.63,12.87-8.2.42.13,1.24-.46,1.66-.92,3.11-3.41,7.22-3.69,11.41-3.7,15.63,0,31.27,0,46.9-.07,1.66,0,3.76,1,4.89-1.28,7.78-.89,15.59-.37,23.38-.31,3.73,0,5.81,2.16,5.83,6,0,6.82-.07,13.63.11,20.44C346.1,386.9,342.81,387,339.67,387.55Zm-19-18.11c0,3.56.68,5.55,4.35,2.32,1.43-1.24,3-2.74,5.62-1.57-1,2.63-3.48,3.92-5.17,6,1.86.55,3.58.64,5.26,1.53,4.2,2.22,6.24.88,6.29-3.77,0-1.35.84-2.15,1.5-3,2.65-3.53-.31-7.36.62-11,.21-.8-1.32-1.4-2.35-1.35-2.92.13-5.84-.17-7.51,3.37-1,2.12-2.68,4.25-5.5,4.59-.31-1.19.63-3.18-1-3.41-2.11-.3-1.81,1.86-2.07,3.23C320.48,367.34,319.36,368.4,320.68,369.44Zm-91.35,7.63a2.25,2.25,0,0,0,1.2-2.32.93.93,0,0,0-1.43-.75,2,2,0,0,0-1.2,2C227.92,376.72,228.38,377.11,229.33,377.07Zm20-10.55c0-1.43-.39-1.84-.88-1.62a2.44,2.44,0,0,0-1.3,1.18c-.25.74.34,1.15,1.07.95A4.26,4.26,0,0,0,249.34,366.52Z"
      transform="translate(-31.97 -17.46)" style="fill:#d1f2f6" />
    <path
      d="M316.65,356.13c-1.13,2.27-3.23,1.27-4.89,1.28-15.63.09-31.27,0-46.9.07-4.19,0-8.3.29-11.41,3.7-.42.46-1.24,1.05-1.66.92-7.77-2.43-7.92,6.38-12.87,8.2,2.44,1.08,4.67-.56,6.93.49.08,2.1-2.16,2.67-2.9,4.25-1.27,2.74-3.45,4.36-6.4,3.14a6.17,6.17,0,0,1-3.74-7c.95-5.54,1.87-8.33,9.75-10.74-3.12,0-6.24,0-9.36,0s-4.42,2.17-4.82,4.78c-.81,5.32-3.63,10.3-2.68,15.92a3.27,3.27,0,0,1-.84,3.24c-1.28-8.23-.36-16.52-.64-24.77a.76.76,0,0,0,.6-.14,30.73,30.73,0,0,1,12.86-2.05c3.77.25,7.57.06,11.36,0,1.4,0,3.08.48,3.77-1.46h1.86c.58,1.66,1.28,1.84,2.13.18C276.75,355.49,296.7,355.84,316.65,356.13Z"
      transform="translate(-31.97 -17.46)" style="fill:#fcfcfc" />
    <path
      d="M252.81,356c-.69,1.94-2.37,1.44-3.77,1.46-3.79.06-7.59.25-11.36,0a30.73,30.73,0,0,0-12.86,2.05,4.86,4.86,0,0,1,5.12-3.71C237.56,355.8,245.18,355.92,252.81,356Z"
      transform="translate(-31.97 -17.46)" style="fill:#d1f2f6" />
    <path d="M256.8,356.18c-.85,1.66-1.55,1.48-2.13-.18Z" transform="translate(-31.97 -17.46)" style="fill:#d1f2f6" />
    <path
      d="M278.44,493.75c2.6,1.39,1.23,3.83,1.44,5.8.26,2.47,0,5,.2,7.48.5,6.61-.2,7.46-7,7.3-3.82-.09-7.62-.46-11.43-.73-1.16-.08-2.76-.1-2.74-1.55.09-5.85-1.42-11.81,1-17.53,5.58,1.78,11.28.44,16.92.71C277.82,495.28,278.31,494.67,278.44,493.75Z"
      transform="translate(-31.97 -17.46)" style="fill:#9d8ef7" />
    <path
      d="M278.44,493.75c-.13.92-.62,1.53-1.6,1.48-5.64-.27-11.34,1.07-16.92-.71a.84.84,0,0,1,.51-.26c4.89.11,9.79.86,14.64-.39Z"
      transform="translate(-31.97 -17.46)" style="fill:#d1f2f6" />
    <path d="M275.07,493.87c-4.85,1.25-9.75.5-14.64.39C265.27,492.75,270.18,493.4,275.07,493.87Z"
      transform="translate(-31.97 -17.46)" style="fill:#9d8ef7" />
    <path
      d="M278.47,403.57c3.37,3.37,1.27,7.53,1.43,11.27.33,7.83.08,7.85-7.64,7.83-13.74,0-13.75,0-13.67-13.58,0-1.32.18-2.63.28-3.95,5.59.09,11.19.18,16.78.23C276.94,405.39,278.43,405.58,278.47,403.57Z"
      transform="translate(-31.97 -17.46)" style="fill:#9d8ef7" />
    <path
      d="M278.47,403.57c0,2-1.53,1.82-2.82,1.8-5.59-.05-11.19-.14-16.78-.23.55-1.58,1.84-1.68,3.23-1.67C267.56,403.52,273,403.54,278.47,403.57Z"
      transform="translate(-31.97 -17.46)" style="fill:#cfcfd1" />
    <path
      d="M247,495.43c1.57,5,.57,10.14.64,15.22,0,3-2.62,3.75-4.94,3.72-4.93-.06-9.87-.51-14.8-.85-2.36-.16-2.28-2-2.27-3.65q0-7.2.1-14.4Z"
      transform="translate(-31.97 -17.46)" style="fill:#756ac3" />
    <path
      d="M247,495.43l-21.27,0a2.24,2.24,0,0,1,2.07-1.83c5.76-.08,11.51-.09,17.26-.09C246.25,493.55,246.71,494.42,247,495.43Z"
      transform="translate(-31.97 -17.46)" style="fill:#9d8ef7" />
    <path
      d="M301.3,403.49c10.64,0,10.69,0,10.56,10.44-.12,10,1.07,8.48-8.93,8.57-12.22.12-12.22.07-12.23-11.65,0-7.38,0-7.38,7.62-7.36Z"
      transform="translate(-31.97 -17.46)" style="fill:#9d8ef7" />
    <path
      d="M258.65,480.57c.72-5.39-1.32-11,1.13-16.24,3.61,1,7.23-.06,10.86,0,2.62.06,5.5,1.1,7.95-.87,1.21,0,1.36.95,1.48,1.86a81.43,81.43,0,0,0-.23,9.36c.34,4-1.15,5.07-5,5.06C269.43,479.73,263.94,478.59,258.65,480.57Z"
      transform="translate(-31.97 -17.46)" style="fill:#9d8ef7" />
    <path
      d="M258.65,480.57c5.29-2,10.78-.84,16.16-.82,3.88,0,5.37-1.09,5-5.06a81.43,81.43,0,0,1,.23-9.36c1.25,5,.43,10.14.57,15.22a2.64,2.64,0,0,1-2.74,2.9q-8.65.1-17.3,0C258.83,483.41,258.65,482,258.65,480.57Z"
      transform="translate(-31.97 -17.46)" style="fill:#756ac3" />
    <path d="M278.59,463.47c-2.45,2-5.33.93-7.95.87-3.63-.07-7.25,1-10.86,0C266,462.2,272.32,463.73,278.59,463.47Z"
      transform="translate(-31.97 -17.46)" style="fill:#d1f2f6" />
    <path
      d="M301.57,453.32c-12.53-.07-11,.91-10.95-10.88.06-9.95-1.61-9.31,9.35-9.3,14.38,0,12.43-1.89,12.44,12.27C312.42,453.32,312.35,453.32,301.57,453.32Z"
      transform="translate(-31.97 -17.46)" style="fill:#9d8ef7" />
    <path
      d="M310.56,463.57c2.4.91,1.51,3.12,1.89,4.82-1.26,3.36-.68,6.79-.37,10.21.06,2.45-.61,3.87-3.56,4.15-4.77.46-9.54.52-14.32.57-1.5,0-3.33,0-3.37-2-.11-5.61,0-11.21.11-16.81,0-1,1.1-1,1.94-1,0,.89.24,2,1.15,1.82C299.48,464.13,305.19,465.4,310.56,463.57Z"
      transform="translate(-31.97 -17.46)" style="fill:#9d8ef7" />
    <path d="M310.56,463.57c-5.37,1.83-11.08.56-16.53,1.76-.91.2-1.19-.93-1.15-1.82l13.72-.36,4.11.33Z"
      transform="translate(-31.97 -17.46)" style="fill:#d1f2f6" />
    <path d="M312.08,478.6c-.31-3.42-.89-6.85.37-10.21C312.69,471.81,313.26,475.23,312.08,478.6Z"
      transform="translate(-31.97 -17.46)" style="fill:#756ac3" />
    <path d="M310.71,463.48l-4.11-.33c1.22-1.22,2.73-.67,4.15-.67l0,0Z" transform="translate(-31.97 -17.46)"
      style="fill:#756ac3" />
    <path
      d="M290.56,512.65c.39-6.1-.72-12.3,1.1-18.32,6.36,1.93,12.72,1.55,19.09.1l1.95.08,0,0c-1,6,.75,12.11-.85,18.07C304.75,514.32,297.65,512.1,290.56,512.65Z"
      transform="translate(-31.97 -17.46)" style="fill:#9d8ef7" />
    <path d="M290.56,512.65c7.09-.55,14.19,1.67,21.27-.09,0,.16,0,.36-.1.48C308.93,516.57,293.28,516.28,290.56,512.65Z"
      transform="translate(-31.97 -17.46)" style="fill:#756ac3" />
    <path d="M310.75,494.43c-6.37,1.45-12.73,1.83-19.09-.1l1-.74c6,1.76,12.07.4,18.1.86Z"
      transform="translate(-31.97 -17.46)" style="fill:#d1f2f6" />
    <path d="M310.77,494.45c-6-.46-12.14.9-18.1-.86C298.7,493.83,304.83,492.21,310.77,494.45Z"
      transform="translate(-31.97 -17.46)" style="fill:#9d8ef7" />
    <path
      d="M280.09,450.6c-.07.35-.15.7-.22,1-6.81-.59-13.66-3.53-20.41.26l-.94-2.34q.23-7.17.43-14.35c6.57.12,13.24,1.2,19.54-1.75l1.2,0Q279.89,442.07,280.09,450.6Z"
      transform="translate(-31.97 -17.46)" style="fill:#9d8ef7" />
    <path
      d="M259.46,451.91c6.75-3.79,13.6-.85,20.41-.26-.19.85-.64,1.68-1.51,1.69q-8.79,0-17.58-.14C260.33,453.19,259.9,452.36,259.46,451.91Z"
      transform="translate(-31.97 -17.46)" style="fill:#756ac3" />
    <path
      d="M278.49,433.47c-6.3,2.95-13,1.87-19.54,1.75a2.6,2.6,0,0,0-.23-.91c.65-1.15,1.85-.81,2.84-1.07a75.6,75.6,0,0,0,14.35-.05Z"
      transform="translate(-31.97 -17.46)" style="fill:#cfcfd1" />
    <path d="M280.09,450.6q-.19-8.53-.4-17.08l1.06,0,0,0C280.34,439.16,281.47,444.92,280.09,450.6Z"
      transform="translate(-31.97 -17.46)" style="fill:#756ac3" />
    <path d="M258.72,434.31a2.6,2.6,0,0,1,.23.91q-.21,7.17-.43,14.35C257.56,444.47,257.22,439.38,258.72,434.31Z"
      transform="translate(-31.97 -17.46)" style="fill:#756ac3" />
    <path d="M275.91,433.19a75.6,75.6,0,0,1-14.35.05A29.05,29.05,0,0,1,275.91,433.19Z"
      transform="translate(-31.97 -17.46)" style="fill:#756ac3" />
    <path
      d="M323.79,366.48c2.82-.34,4.49-2.47,5.5-4.59,1.67-3.54,4.59-3.24,7.51-3.37,1,0,2.56.55,2.35,1.35-.93,3.65,2,7.48-.62,11-.66.89-1.48,1.69-1.5,3,0,4.65-2.09,6-6.29,3.77-1.68-.89-3.4-1-5.26-1.53,1.69-2.05,4.17-3.34,5.17-6-2.66-1.17-4.19.33-5.62,1.57-3.67,3.23-4.39,1.24-4.35-2.32A7.77,7.77,0,0,0,323.79,366.48Z"
      transform="translate(-31.97 -17.46)" style="fill:#fcfcfc" />
    <path
      d="M323.79,366.48a7.77,7.77,0,0,1-3.11,3c-1.32-1-.2-2.1,0-3.14.26-1.37,0-3.53,2.07-3.23C324.42,363.3,323.48,365.29,323.79,366.48Z"
      transform="translate(-31.97 -17.46)" style="fill:#cfcfd1" />
    <path d="M229.33,377.07c-1,0-1.41-.35-1.43-1.1a2,2,0,0,1,1.2-2,.93.93,0,0,1,1.43.75A2.25,2.25,0,0,1,229.33,377.07Z"
      transform="translate(-31.97 -17.46)" style="fill:#fcfcfc" />
    <path
      d="M249.34,366.52a4.26,4.26,0,0,1-1.11.51c-.73.2-1.32-.21-1.07-.95a2.44,2.44,0,0,1,1.3-1.18C249,364.68,249.31,365.09,249.34,366.52Z"
      transform="translate(-31.97 -17.46)" style="fill:#fcfcfc" />

</svg>